<?xml version="1.0" encoding="utf-8"?>
<!-- Generator: Adobe Illustrator 27.5.0, SVG Export Plug-In . SVG Version: 6.00 Build 0)  -->
<svg version="1.1" xmlns="http://www.w3.org/2000/svg" xmlns:xlink="http://www.w3.org/1999/xlink" x="0px" y="0px"
	 viewBox="0 0 500 500" style="enable-background:new 0 0 500 500;" xml:space="preserve">
<g id="BACKGROUND">
	<rect style="fill:#FFFFFF;" width="500" height="500"/>
</g>
<g id="DESIGNED_BY_FREEPIK">
	<g>
		<g>
			<path style="fill:#3B3E3F;" d="M180.308,480.67v-0.16c-0.218,0.248-0.433,0.453-0.645,0.607c-0.211,0.158-0.44,0.276-0.689,0.356
				c-0.246,0.084-0.517,0.122-0.81,0.122c-0.388,0-0.748-0.081-1.077-0.245c-0.332-0.164-0.617-0.399-0.859-0.704
				c-0.24-0.304-0.424-0.661-0.549-1.075c-0.125-0.41-0.187-0.856-0.187-1.335c0-1.013,0.248-1.803,0.742-2.369
				c0.495-0.564,1.146-0.849,1.953-0.849c0.467,0,0.86,0.08,1.182,0.241c0.319,0.16,0.632,0.407,0.938,0.738v-2.392
				c0-0.333,0.065-0.583,0.198-0.755c0.133-0.169,0.322-0.255,0.567-0.255c0.245,0,0.435,0.079,0.567,0.234
				c0.132,0.158,0.199,0.388,0.199,0.692v7.146c0,0.31-0.071,0.54-0.214,0.695c-0.144,0.153-0.327,0.23-0.553,0.23
				c-0.222,0-0.404-0.079-0.55-0.239C180.379,481.196,180.308,480.967,180.308,480.67z M177.121,478.29
				c0,0.439,0.068,0.813,0.203,1.123c0.137,0.308,0.323,0.54,0.562,0.696c0.238,0.156,0.497,0.235,0.778,0.235
				c0.283,0,0.543-0.074,0.781-0.224c0.234-0.147,0.422-0.376,0.563-0.683c0.142-0.306,0.211-0.691,0.211-1.148
				c0-0.432-0.069-0.804-0.211-1.113c-0.141-0.311-0.33-0.548-0.569-0.713c-0.24-0.164-0.501-0.245-0.787-0.245
				c-0.297,0-0.562,0.084-0.795,0.252c-0.234,0.168-0.415,0.409-0.543,0.724C177.184,477.509,177.121,477.874,177.121,478.29z"/>
			<path style="fill:#3B3E3F;" d="M187.453,478.7h-3.168c0.003,0.368,0.076,0.692,0.222,0.973c0.145,0.281,0.337,0.494,0.576,0.635
				c0.239,0.144,0.503,0.215,0.792,0.215c0.195,0,0.371-0.022,0.531-0.068c0.161-0.046,0.316-0.117,0.467-0.214
				c0.15-0.098,0.289-0.201,0.414-0.311c0.127-0.111,0.291-0.262,0.494-0.452c0.082-0.071,0.201-0.107,0.355-0.107
				c0.166,0,0.301,0.046,0.403,0.138c0.103,0.091,0.155,0.219,0.155,0.386c0,0.146-0.058,0.316-0.172,0.513
				c-0.117,0.196-0.289,0.384-0.52,0.563c-0.231,0.182-0.521,0.329-0.872,0.447c-0.35,0.12-0.752,0.179-1.208,0.179
				c-1.042,0-1.851-0.297-2.429-0.89c-0.576-0.594-0.865-1.398-0.865-2.416c0-0.48,0.07-0.924,0.213-1.333
				c0.143-0.409,0.35-0.761,0.623-1.053c0.273-0.294,0.609-0.519,1.01-0.674c0.399-0.157,0.843-0.235,1.33-0.235
				c0.633,0,1.176,0.134,1.628,0.4c0.454,0.268,0.794,0.613,1.019,1.036c0.226,0.423,0.339,0.855,0.339,1.293
				c0,0.41-0.116,0.673-0.35,0.794C188.207,478.64,187.877,478.7,187.453,478.7z M184.285,477.78h2.938
				c-0.039-0.555-0.19-0.97-0.447-1.244c-0.26-0.275-0.601-0.413-1.025-0.413c-0.403,0-0.735,0.14-0.994,0.418
				C184.497,476.82,184.34,477.232,184.285,477.78z"/>
			<path style="fill:#3B3E3F;" d="M194.838,479.477c0,0.447-0.107,0.83-0.326,1.148c-0.217,0.319-0.539,0.561-0.965,0.726
				c-0.426,0.164-0.943,0.245-1.553,0.245c-0.58,0-1.08-0.089-1.494-0.268c-0.416-0.176-0.723-0.399-0.922-0.666
				c-0.197-0.269-0.296-0.536-0.296-0.806c0-0.179,0.062-0.33,0.191-0.456c0.126-0.127,0.287-0.19,0.48-0.19
				c0.17,0,0.299,0.042,0.391,0.126c0.092,0.082,0.179,0.2,0.262,0.349c0.166,0.29,0.365,0.504,0.598,0.648
				c0.232,0.141,0.547,0.213,0.947,0.213c0.324,0,0.59-0.073,0.797-0.217c0.209-0.146,0.313-0.311,0.313-0.495
				c0-0.286-0.107-0.492-0.324-0.624c-0.216-0.129-0.57-0.256-1.065-0.374c-0.558-0.138-1.012-0.284-1.362-0.438
				c-0.351-0.151-0.63-0.352-0.84-0.602c-0.21-0.249-0.314-0.557-0.314-0.92c0-0.324,0.096-0.631,0.29-0.921
				c0.194-0.288,0.481-0.519,0.859-0.691c0.378-0.171,0.833-0.258,1.367-0.258c0.42,0,0.798,0.044,1.13,0.132
				c0.335,0.086,0.614,0.203,0.838,0.35c0.224,0.145,0.395,0.309,0.51,0.487c0.118,0.177,0.175,0.351,0.175,0.522
				c0,0.185-0.062,0.338-0.185,0.458c-0.125,0.117-0.303,0.179-0.533,0.179c-0.166,0-0.307-0.048-0.424-0.145
				c-0.117-0.094-0.25-0.237-0.4-0.426c-0.123-0.159-0.268-0.286-0.433-0.382c-0.167-0.095-0.392-0.141-0.678-0.141
				c-0.293,0-0.536,0.061-0.73,0.186c-0.194,0.126-0.291,0.28-0.291,0.466c0,0.171,0.07,0.31,0.213,0.418
				c0.143,0.111,0.334,0.201,0.577,0.271c0.24,0.071,0.572,0.158,0.997,0.261c0.502,0.123,0.912,0.27,1.23,0.439
				c0.318,0.169,0.561,0.371,0.726,0.603C194.756,478.917,194.838,479.18,194.838,479.477z"/>
			<path style="fill:#3B3E3F;" d="M196.494,474.254c-0.225,0-0.419-0.07-0.578-0.208c-0.162-0.138-0.24-0.334-0.24-0.588
				c0-0.23,0.081-0.418,0.244-0.566c0.165-0.149,0.357-0.224,0.574-0.224c0.21,0,0.395,0.067,0.558,0.203
				c0.163,0.134,0.243,0.329,0.243,0.587c0,0.249-0.08,0.443-0.238,0.584C196.899,474.183,196.711,474.254,196.494,474.254z
				 M197.295,475.927v4.685c0,0.324-0.076,0.569-0.23,0.736c-0.155,0.166-0.351,0.248-0.588,0.248c-0.238,0-0.432-0.083-0.58-0.255
				c-0.148-0.17-0.221-0.413-0.221-0.729v-4.636c0-0.321,0.072-0.563,0.221-0.726c0.148-0.161,0.342-0.243,0.58-0.243
				c0.237,0,0.433,0.082,0.588,0.243C197.219,475.413,197.295,475.639,197.295,475.927z"/>
			<path style="fill:#3B3E3F;" d="M204.395,476.194v4.707c0,0.539-0.058,1.003-0.174,1.39c-0.113,0.388-0.297,0.709-0.551,0.962
				c-0.253,0.252-0.586,0.441-0.994,0.564c-0.409,0.123-0.92,0.184-1.528,0.184c-0.558,0-1.058-0.077-1.497-0.233
				c-0.438-0.158-0.775-0.359-1.014-0.606c-0.238-0.247-0.356-0.501-0.356-0.762c0-0.198,0.067-0.36,0.201-0.484
				c0.134-0.125,0.298-0.188,0.487-0.188c0.236,0,0.445,0.105,0.623,0.315c0.088,0.105,0.176,0.214,0.27,0.322
				c0.093,0.111,0.196,0.203,0.309,0.28c0.112,0.077,0.248,0.135,0.406,0.173c0.157,0.036,0.341,0.055,0.546,0.055
				c0.42,0,0.746-0.059,0.977-0.175c0.232-0.116,0.395-0.279,0.487-0.489c0.093-0.209,0.147-0.434,0.163-0.674
				c0.016-0.24,0.027-0.625,0.036-1.155c-0.251,0.349-0.538,0.614-0.864,0.796c-0.326,0.182-0.716,0.273-1.166,0.273
				c-0.542,0-1.016-0.139-1.422-0.416c-0.406-0.277-0.719-0.665-0.936-1.164c-0.217-0.498-0.326-1.074-0.326-1.727
				c0-0.485,0.066-0.927,0.199-1.317c0.133-0.393,0.321-0.723,0.566-0.992c0.245-0.268,0.529-0.471,0.848-0.607
				c0.322-0.138,0.674-0.206,1.058-0.206c0.459,0,0.857,0.09,1.194,0.264c0.336,0.177,0.648,0.453,0.938,0.829v-0.22
				c0-0.281,0.068-0.498,0.207-0.653c0.14-0.153,0.317-0.232,0.535-0.232c0.313,0,0.52,0.103,0.622,0.306
				C204.344,475.517,204.395,475.811,204.395,476.194z M199.699,478.249c0,0.656,0.143,1.153,0.431,1.488
				c0.286,0.338,0.657,0.506,1.112,0.506c0.27,0,0.523-0.073,0.762-0.217c0.24-0.145,0.436-0.363,0.587-0.653
				c0.148-0.29,0.224-0.643,0.224-1.059c0-0.661-0.145-1.176-0.436-1.543c-0.291-0.367-0.674-0.552-1.148-0.552
				c-0.464,0-0.835,0.177-1.113,0.528C199.838,477.099,199.699,477.6,199.699,478.249z"/>
			<path style="fill:#3B3E3F;" d="M206.971,475.904v0.195c0.284-0.376,0.596-0.653,0.935-0.828c0.339-0.176,0.727-0.265,1.165-0.265
				c0.428,0,0.811,0.094,1.146,0.279c0.336,0.187,0.589,0.449,0.754,0.788c0.107,0.2,0.177,0.413,0.207,0.643
				c0.031,0.229,0.049,0.522,0.049,0.88v3.015c0,0.324-0.074,0.569-0.223,0.736c-0.148,0.166-0.342,0.248-0.578,0.248
				c-0.242,0-0.438-0.083-0.588-0.255c-0.152-0.17-0.227-0.413-0.227-0.729v-2.702c0-0.533-0.074-0.941-0.223-1.225
				c-0.148-0.283-0.443-0.426-0.888-0.426c-0.288,0-0.552,0.087-0.788,0.26c-0.238,0.171-0.413,0.408-0.523,0.709
				c-0.078,0.241-0.119,0.691-0.119,1.354v2.03c0,0.327-0.076,0.575-0.229,0.739c-0.15,0.164-0.349,0.245-0.589,0.245
				c-0.235,0-0.427-0.083-0.577-0.255c-0.149-0.17-0.225-0.413-0.225-0.729v-4.685c0-0.309,0.066-0.54,0.201-0.692
				c0.134-0.151,0.318-0.228,0.551-0.228c0.144,0,0.273,0.033,0.388,0.102c0.113,0.067,0.206,0.168,0.275,0.303
				C206.936,475.545,206.971,475.71,206.971,475.904z"/>
			<path style="fill:#3B3E3F;" d="M216.828,478.7h-3.168c0.003,0.368,0.078,0.692,0.222,0.973c0.146,0.281,0.337,0.494,0.576,0.635
				c0.239,0.144,0.503,0.215,0.792,0.215c0.195,0,0.371-0.022,0.533-0.068c0.158-0.046,0.315-0.117,0.465-0.214
				c0.15-0.098,0.287-0.201,0.416-0.311c0.125-0.111,0.291-0.262,0.492-0.452c0.082-0.071,0.201-0.107,0.355-0.107
				c0.166,0,0.301,0.046,0.404,0.138c0.104,0.091,0.154,0.219,0.154,0.386c0,0.146-0.058,0.316-0.172,0.513
				c-0.115,0.196-0.289,0.384-0.52,0.563c-0.231,0.182-0.521,0.329-0.872,0.447c-0.35,0.12-0.752,0.179-1.208,0.179
				c-1.042,0-1.851-0.297-2.428-0.89c-0.578-0.594-0.866-1.398-0.866-2.416c0-0.48,0.07-0.924,0.213-1.333
				c0.143-0.409,0.35-0.761,0.624-1.053c0.273-0.294,0.608-0.519,1.009-0.674c0.399-0.157,0.843-0.235,1.33-0.235
				c0.633,0,1.176,0.134,1.628,0.4c0.454,0.268,0.794,0.613,1.019,1.036c0.225,0.423,0.338,0.855,0.338,1.293
				c0,0.41-0.116,0.673-0.35,0.794C217.582,478.64,217.254,478.7,216.828,478.7z M213.66,477.78h2.938
				c-0.039-0.555-0.19-0.97-0.447-1.244c-0.26-0.275-0.601-0.413-1.025-0.413c-0.403,0-0.735,0.14-0.994,0.418
				C213.872,476.82,213.715,477.232,213.66,477.78z"/>
			<path style="fill:#3B3E3F;" d="M223.436,480.67v-0.16c-0.217,0.248-0.433,0.453-0.643,0.607
				c-0.212,0.158-0.442,0.276-0.689,0.356c-0.248,0.084-0.518,0.122-0.811,0.122c-0.389,0-0.748-0.081-1.078-0.245
				c-0.33-0.164-0.617-0.399-0.857-0.704c-0.241-0.304-0.424-0.661-0.549-1.075c-0.125-0.41-0.186-0.856-0.186-1.335
				c0-1.013,0.247-1.803,0.741-2.369c0.495-0.564,1.146-0.849,1.953-0.849c0.467,0,0.861,0.08,1.182,0.241
				c0.32,0.16,0.633,0.407,0.938,0.738v-2.392c0-0.333,0.066-0.583,0.198-0.755c0.134-0.169,0.323-0.255,0.567-0.255
				c0.246,0,0.434,0.079,0.566,0.234c0.134,0.158,0.199,0.388,0.199,0.692v7.146c0,0.31-0.07,0.54-0.213,0.695
				c-0.143,0.153-0.326,0.23-0.553,0.23c-0.222,0-0.404-0.079-0.549-0.239C223.507,481.196,223.436,480.967,223.436,480.67z
				 M220.248,478.29c0,0.439,0.068,0.813,0.205,1.123c0.135,0.308,0.323,0.54,0.561,0.696c0.236,0.156,0.495,0.235,0.776,0.235
				c0.285,0,0.545-0.074,0.781-0.224c0.235-0.147,0.424-0.376,0.564-0.683c0.14-0.306,0.209-0.691,0.209-1.148
				c0-0.432-0.069-0.804-0.209-1.113c-0.141-0.311-0.331-0.548-0.57-0.713c-0.24-0.164-0.502-0.245-0.787-0.245
				c-0.297,0-0.563,0.084-0.795,0.252c-0.233,0.168-0.415,0.409-0.544,0.724C220.311,477.509,220.248,477.874,220.248,478.29z"/>
			<path style="fill:#3B3E3F;" d="M230.059,473.523v2.475c0.305-0.316,0.615-0.559,0.934-0.726c0.315-0.169,0.707-0.253,1.174-0.253
				c0.539,0,1.01,0.128,1.417,0.382c0.405,0.257,0.719,0.627,0.943,1.111c0.224,0.485,0.335,1.06,0.335,1.725
				c0,0.491-0.062,0.94-0.186,1.351c-0.126,0.41-0.307,0.765-0.544,1.065c-0.237,0.3-0.526,0.534-0.864,0.698
				c-0.338,0.164-0.711,0.245-1.119,0.245c-0.249,0-0.483-0.029-0.703-0.089c-0.22-0.059-0.406-0.137-0.562-0.234
				c-0.153-0.097-0.286-0.196-0.394-0.299c-0.109-0.103-0.254-0.258-0.432-0.464v0.16c0,0.305-0.072,0.535-0.22,0.693
				c-0.146,0.155-0.332,0.232-0.558,0.232c-0.23,0-0.412-0.077-0.548-0.232c-0.138-0.158-0.206-0.389-0.206-0.693v-7.075
				c0-0.329,0.066-0.578,0.198-0.745c0.133-0.169,0.318-0.253,0.556-0.253c0.25,0,0.441,0.081,0.576,0.241
				C229.991,472.998,230.059,473.226,230.059,473.523z M230.137,478.338c0,0.645,0.146,1.14,0.442,1.485
				c0.294,0.347,0.681,0.521,1.16,0.521c0.406,0,0.759-0.177,1.054-0.532c0.295-0.353,0.442-0.861,0.442-1.522
				c0-0.428-0.062-0.795-0.185-1.105c-0.122-0.308-0.297-0.547-0.521-0.715c-0.226-0.168-0.49-0.252-0.79-0.252
				c-0.309,0-0.585,0.084-0.825,0.252c-0.242,0.168-0.432,0.411-0.57,0.729C230.205,477.519,230.137,477.898,230.137,478.338z"/>
			<path style="fill:#3B3E3F;" d="M236.963,481.799l0.148-0.363l-1.995-5.021c-0.121-0.288-0.184-0.499-0.184-0.63
				c0-0.138,0.037-0.267,0.107-0.385c0.072-0.119,0.17-0.215,0.294-0.285c0.125-0.072,0.254-0.107,0.389-0.107
				c0.233,0,0.41,0.074,0.528,0.224c0.119,0.147,0.223,0.359,0.314,0.637l1.371,3.989l1.301-3.71c0.102-0.3,0.196-0.536,0.279-0.706
				c0.083-0.17,0.17-0.285,0.264-0.344c0.092-0.06,0.225-0.09,0.395-0.09c0.124,0,0.242,0.032,0.354,0.1
				c0.112,0.063,0.2,0.152,0.262,0.263c0.061,0.111,0.092,0.227,0.092,0.351c-0.017,0.074-0.041,0.182-0.078,0.321
				c-0.035,0.138-0.078,0.279-0.13,0.421l-2.113,5.532c-0.182,0.486-0.36,0.868-0.534,1.145c-0.175,0.276-0.404,0.491-0.691,0.638
				c-0.287,0.149-0.674,0.224-1.161,0.224c-0.475,0-0.831-0.051-1.067-0.153c-0.238-0.104-0.357-0.291-0.357-0.565
				c0-0.186,0.057-0.329,0.17-0.43c0.113-0.102,0.279-0.152,0.501-0.152c0.087,0,0.173,0.011,0.257,0.036
				c0.102,0.023,0.191,0.036,0.266,0.036c0.186,0,0.333-0.027,0.439-0.084c0.107-0.055,0.203-0.151,0.287-0.288
				C236.754,482.266,236.852,482.064,236.963,481.799z"/>
		</g>
		<g>
			<path style="fill:#3B3E3F;" d="M260.439,475.147h0.387v-0.485c0-0.509,0.063-0.911,0.191-1.211
				c0.128-0.3,0.347-0.517,0.655-0.652c0.306-0.136,0.726-0.205,1.26-0.205c0.949,0,1.42,0.229,1.42,0.697
				c0,0.148-0.05,0.277-0.15,0.383c-0.096,0.106-0.214,0.161-0.349,0.161c-0.063,0-0.173-0.012-0.329-0.038
				c-0.148-0.02-0.282-0.034-0.39-0.034c-0.292,0-0.479,0.088-0.565,0.26c-0.08,0.173-0.123,0.417-0.123,0.74v0.385h0.396
				c0.619,0,0.925,0.186,0.925,0.561c0,0.261-0.079,0.431-0.245,0.502c-0.163,0.071-0.389,0.106-0.68,0.106h-0.396v4.295
				c0,0.319-0.076,0.563-0.23,0.729c-0.151,0.172-0.347,0.254-0.59,0.254c-0.23,0-0.418-0.082-0.573-0.254
				c-0.153-0.167-0.227-0.41-0.227-0.729v-4.295h-0.446c-0.242,0-0.427-0.052-0.559-0.164c-0.13-0.106-0.196-0.248-0.196-0.423
				C259.625,475.34,259.896,475.147,260.439,475.147"/>
			<path style="fill:#3B3E3F;" d="M265.745,479.256v1.355c0,0.326-0.082,0.575-0.233,0.737c-0.154,0.166-0.35,0.246-0.586,0.246
				c-0.238,0-0.43-0.081-0.579-0.251c-0.147-0.164-0.226-0.409-0.226-0.733v-4.515c0-0.729,0.263-1.093,0.789-1.093
				c0.271,0,0.463,0.085,0.583,0.256c0.118,0.17,0.185,0.421,0.198,0.754c0.191-0.333,0.391-0.584,0.593-0.754
				c0.208-0.171,0.477-0.256,0.818-0.256c0.343,0,0.669,0.085,0.991,0.256c0.321,0.17,0.481,0.397,0.481,0.677
				c0,0.196-0.069,0.362-0.204,0.489c-0.138,0.13-0.284,0.195-0.441,0.195c-0.061,0-0.206-0.04-0.432-0.113
				c-0.228-0.071-0.432-0.108-0.602-0.108c-0.237,0-0.433,0.064-0.582,0.186c-0.151,0.129-0.27,0.311-0.353,0.554
				c-0.081,0.248-0.138,0.541-0.171,0.879C265.759,478.356,265.745,478.771,265.745,479.256"/>
			<path style="fill:#3B3E3F;" d="M273.196,478.698h-3.172c0.007,0.367,0.079,0.694,0.222,0.974c0.147,0.28,0.338,0.492,0.578,0.636
				c0.24,0.143,0.503,0.214,0.794,0.214c0.192,0,0.369-0.022,0.53-0.07c0.158-0.044,0.315-0.116,0.465-0.214
				c0.151-0.096,0.288-0.199,0.416-0.313c0.126-0.108,0.291-0.26,0.494-0.449c0.084-0.071,0.202-0.108,0.354-0.108
				c0.167,0,0.301,0.047,0.405,0.139c0.103,0.092,0.152,0.218,0.152,0.387c0,0.145-0.056,0.317-0.167,0.511
				c-0.117,0.199-0.289,0.386-0.522,0.566c-0.233,0.178-0.525,0.329-0.874,0.446c-0.349,0.119-0.753,0.179-1.207,0.179
				c-1.044,0-1.853-0.296-2.429-0.889c-0.578-0.595-0.869-1.402-0.869-2.417c0-0.479,0.073-0.925,0.217-1.334
				c0.141-0.412,0.349-0.761,0.624-1.055c0.271-0.294,0.606-0.518,1.008-0.674c0.398-0.157,0.841-0.234,1.33-0.234
				c0.632,0,1.175,0.134,1.629,0.403c0.451,0.265,0.796,0.611,1.019,1.034c0.225,0.425,0.338,0.855,0.338,1.296
				c0,0.406-0.117,0.67-0.351,0.792C273.948,478.638,273.619,478.698,273.196,478.698 M270.024,477.776h2.939
				c-0.039-0.553-0.186-0.968-0.446-1.241c-0.261-0.276-0.599-0.413-1.025-0.413c-0.403,0-0.735,0.139-0.994,0.419
				C270.238,476.819,270.079,477.23,270.024,477.776"/>
			<path style="fill:#3B3E3F;" d="M279.938,478.698h-3.17c0.004,0.367,0.078,0.694,0.221,0.974c0.146,0.28,0.337,0.492,0.576,0.636
				c0.24,0.143,0.503,0.214,0.795,0.214c0.192,0,0.369-0.022,0.527-0.07c0.163-0.044,0.316-0.116,0.469-0.214
				c0.151-0.096,0.288-0.199,0.415-0.313c0.124-0.108,0.29-0.26,0.493-0.449c0.084-0.071,0.203-0.108,0.354-0.108
				c0.169,0,0.302,0.047,0.407,0.139c0.103,0.092,0.149,0.218,0.149,0.387c0,0.145-0.054,0.317-0.17,0.511
				c-0.111,0.199-0.285,0.386-0.519,0.566c-0.232,0.178-0.526,0.329-0.874,0.446c-0.348,0.119-0.754,0.179-1.208,0.179
				c-1.043,0-1.849-0.296-2.429-0.889c-0.578-0.595-0.868-1.402-0.868-2.417c0-0.479,0.072-0.925,0.218-1.334
				c0.142-0.412,0.349-0.761,0.622-1.055c0.272-0.294,0.608-0.518,1.008-0.674c0.399-0.157,0.846-0.234,1.331-0.234
				c0.631,0,1.174,0.134,1.634,0.403c0.45,0.265,0.79,0.611,1.013,1.034c0.225,0.425,0.341,0.855,0.341,1.296
				c0,0.406-0.12,0.67-0.351,0.792C280.689,478.638,280.36,478.698,279.938,478.698 M276.768,477.776h2.938
				c-0.039-0.553-0.189-0.968-0.445-1.241c-0.265-0.276-0.603-0.413-1.027-0.413c-0.404,0-0.735,0.139-0.996,0.419
				C276.978,476.819,276.82,477.23,276.768,477.776"/>
			<path style="fill:#3B3E3F;" d="M283.488,475.917v0.193c0.304-0.376,0.621-0.652,0.952-0.828c0.324-0.178,0.699-0.267,1.113-0.267
				c0.497,0,0.96,0.13,1.38,0.385c0.42,0.26,0.749,0.636,0.993,1.13c0.244,0.497,0.367,1.082,0.367,1.759
				c0,0.497-0.071,0.958-0.21,1.376c-0.142,0.417-0.337,0.767-0.582,1.049c-0.244,0.281-0.535,0.502-0.867,0.654
				c-0.339,0.15-0.694,0.227-1.081,0.227c-0.462,0-0.852-0.093-1.165-0.28c-0.314-0.182-0.614-0.457-0.9-0.815v2.433
				c0,0.709-0.261,1.067-0.778,1.067c-0.307,0-0.506-0.091-0.608-0.274c-0.095-0.186-0.146-0.451-0.146-0.807v-6.996
				c0-0.308,0.068-0.537,0.201-0.691c0.134-0.149,0.319-0.228,0.553-0.228c0.23,0,0.416,0.078,0.561,0.233
				C283.417,475.396,283.488,475.619,283.488,475.917 M286.665,478.272c0-0.429-0.065-0.796-0.196-1.104
				c-0.132-0.307-0.312-0.542-0.541-0.704c-0.23-0.165-0.49-0.247-0.77-0.247c-0.447,0-0.824,0.177-1.132,0.527
				c-0.307,0.354-0.462,0.871-0.462,1.558c0,0.642,0.152,1.146,0.46,1.504c0.305,0.358,0.68,0.537,1.134,0.537
				c0.267,0,0.518-0.08,0.748-0.233c0.231-0.157,0.414-0.392,0.551-0.705C286.596,479.091,286.665,478.713,286.665,478.272"/>
			<path style="fill:#3B3E3F;" d="M289.926,474.25c-0.228,0-0.419-0.072-0.578-0.21c-0.162-0.14-0.241-0.333-0.241-0.585
				c0-0.232,0.081-0.418,0.247-0.568c0.164-0.147,0.355-0.223,0.572-0.223c0.213,0,0.397,0.065,0.558,0.198
				c0.163,0.137,0.244,0.335,0.244,0.593c0,0.249-0.079,0.444-0.236,0.585C290.334,474.178,290.146,474.25,289.926,474.25
				 M290.727,475.923v4.689c0,0.322-0.077,0.567-0.23,0.732c-0.156,0.17-0.351,0.251-0.589,0.251c-0.237,0-0.428-0.082-0.579-0.254
				c-0.148-0.172-0.223-0.416-0.223-0.728v-4.643c0-0.318,0.075-0.559,0.223-0.722c0.151-0.165,0.342-0.244,0.579-0.244
				c0.238,0,0.433,0.079,0.589,0.244C290.65,475.411,290.727,475.638,290.727,475.923"/>
			<path style="fill:#3B3E3F;" d="M295.952,480.855l-1.427-2.353l-0.881,0.829v1.292c0,0.312-0.082,0.551-0.247,0.718
				c-0.161,0.172-0.354,0.254-0.566,0.254c-0.249,0-0.447-0.081-0.589-0.251c-0.142-0.164-0.214-0.409-0.214-0.733v-6.914
				c0-0.359,0.071-0.632,0.206-0.822c0.141-0.19,0.341-0.282,0.597-0.282c0.249,0,0.445,0.086,0.594,0.257
				c0.145,0.17,0.22,0.421,0.22,0.751v3.934l1.823-1.913c0.226-0.236,0.395-0.401,0.516-0.487c0.119-0.087,0.264-0.13,0.432-0.13
				c0.204,0,0.371,0.064,0.51,0.193c0.133,0.128,0.2,0.29,0.2,0.483c0,0.237-0.221,0.556-0.659,0.95l-0.86,0.789l1.662,2.614
				c0.12,0.195,0.212,0.34,0.264,0.441c0.053,0.1,0.082,0.2,0.082,0.289c0,0.258-0.072,0.459-0.213,0.608
				c-0.142,0.149-0.327,0.222-0.553,0.222c-0.198,0-0.354-0.05-0.46-0.16C296.281,481.327,296.134,481.133,295.952,480.855"/>
			<path style="fill:#3B3E3F;" d="M299.476,481.595c-0.245,0-0.455-0.078-0.634-0.238c-0.178-0.154-0.269-0.378-0.269-0.665
				c0-0.24,0.087-0.449,0.256-0.622c0.172-0.174,0.38-0.262,0.63-0.262c0.249,0,0.46,0.088,0.64,0.258
				c0.175,0.172,0.264,0.384,0.264,0.626c0,0.283-0.089,0.506-0.264,0.663C299.919,481.517,299.712,481.595,299.476,481.595"/>
			<path style="fill:#3B3E3F;" d="M307.536,479.589c0,0.201-0.061,0.418-0.182,0.646c-0.119,0.232-0.305,0.449-0.554,0.657
				c-0.246,0.207-0.557,0.376-0.934,0.502c-0.376,0.127-0.802,0.191-1.271,0.191c-1.003,0-1.785-0.293-2.348-0.875
				c-0.56-0.585-0.841-1.368-0.841-2.35c0-0.668,0.127-1.254,0.386-1.766c0.255-0.509,0.628-0.904,1.114-1.184
				c0.486-0.28,1.072-0.419,1.746-0.419c0.421,0,0.805,0.061,1.157,0.184c0.35,0.123,0.646,0.282,0.892,0.476
				c0.242,0.196,0.428,0.401,0.556,0.619c0.129,0.221,0.192,0.426,0.192,0.617c0,0.192-0.07,0.357-0.215,0.492
				c-0.147,0.134-0.322,0.203-0.523,0.203c-0.137,0-0.249-0.036-0.338-0.105c-0.091-0.069-0.19-0.181-0.299-0.339
				c-0.2-0.299-0.404-0.525-0.624-0.675c-0.214-0.151-0.487-0.226-0.821-0.226c-0.476,0-0.863,0.187-1.158,0.562
				c-0.291,0.371-0.439,0.887-0.439,1.534c0,0.305,0.04,0.587,0.115,0.842c0.073,0.254,0.182,0.472,0.324,0.651
				c0.145,0.18,0.314,0.315,0.517,0.409c0.202,0.097,0.426,0.142,0.665,0.142c0.326,0,0.604-0.075,0.836-0.226
				c0.234-0.15,0.438-0.38,0.616-0.688c0.098-0.183,0.204-0.323,0.318-0.427c0.114-0.103,0.255-0.157,0.422-0.157
				c0.197,0,0.362,0.077,0.491,0.227C307.47,479.258,307.536,479.419,307.536,479.589"/>
			<path style="fill:#3B3E3F;" d="M314.53,478.302c0,0.48-0.076,0.927-0.223,1.337c-0.153,0.407-0.369,0.757-0.655,1.049
				c-0.284,0.292-0.626,0.517-1.02,0.674c-0.399,0.155-0.844,0.234-1.336,0.234c-0.491,0-0.934-0.079-1.326-0.239
				c-0.39-0.154-0.73-0.383-1.016-0.676c-0.289-0.299-0.506-0.646-0.658-1.048c-0.143-0.403-0.219-0.847-0.219-1.331
				c0-0.492,0.077-0.941,0.224-1.349c0.151-0.41,0.369-0.759,0.649-1.047c0.282-0.288,0.622-0.511,1.02-0.669
				c0.402-0.155,0.843-0.233,1.326-0.233c0.489,0,0.935,0.078,1.336,0.238c0.398,0.157,0.74,0.384,1.027,0.676
				c0.286,0.296,0.503,0.643,0.649,1.044C314.455,477.369,314.53,477.811,314.53,478.302 M312.903,478.302
				c0-0.661-0.146-1.176-0.435-1.543c-0.29-0.373-0.683-0.556-1.172-0.556c-0.318,0-0.598,0.083-0.839,0.246
				c-0.241,0.164-0.427,0.405-0.557,0.729c-0.131,0.32-0.197,0.695-0.197,1.124c0,0.424,0.064,0.791,0.192,1.108
				c0.131,0.318,0.315,0.56,0.555,0.729c0.24,0.166,0.521,0.253,0.846,0.253c0.489,0,0.882-0.186,1.172-0.558
				C312.757,479.465,312.903,478.952,312.903,478.302"/>
			<path style="fill:#3B3E3F;" d="M320.713,478.419v2.155c0,0.342-0.076,0.595-0.23,0.767c-0.157,0.172-0.357,0.255-0.612,0.255
				c-0.244,0-0.445-0.083-0.595-0.255c-0.153-0.172-0.232-0.425-0.232-0.767v-2.582c0-0.408-0.014-0.726-0.04-0.952
				c-0.028-0.222-0.105-0.41-0.226-0.553c-0.123-0.147-0.318-0.22-0.583-0.22c-0.53,0-0.878,0.182-1.047,0.551
				c-0.168,0.36-0.254,0.884-0.254,1.567v2.188c0,0.335-0.076,0.591-0.226,0.765c-0.157,0.17-0.355,0.257-0.603,0.257
				c-0.247,0-0.447-0.087-0.604-0.257c-0.156-0.174-0.234-0.43-0.234-0.765v-4.638c0-0.305,0.068-0.537,0.209-0.694
				c0.144-0.16,0.328-0.238,0.557-0.238c0.222,0,0.407,0.077,0.558,0.223c0.146,0.149,0.22,0.354,0.22,0.615v0.152
				c0.283-0.334,0.585-0.582,0.904-0.737c0.321-0.162,0.676-0.241,1.07-0.241c0.406,0,0.756,0.081,1.049,0.244
				c0.292,0.162,0.532,0.408,0.725,0.734c0.274-0.329,0.567-0.575,0.882-0.737c0.313-0.161,0.658-0.241,1.038-0.241
				c0.44,0,0.825,0.089,1.146,0.262c0.32,0.174,0.56,0.425,0.718,0.747c0.138,0.296,0.206,0.756,0.206,1.386v3.164
				c0,0.342-0.075,0.595-0.23,0.767c-0.154,0.172-0.358,0.255-0.611,0.255c-0.247,0-0.447-0.087-0.602-0.257
				c-0.157-0.174-0.236-0.43-0.236-0.765v-2.727c0-0.349-0.015-0.626-0.043-0.835c-0.029-0.211-0.11-0.389-0.239-0.53
				c-0.133-0.142-0.332-0.215-0.595-0.215c-0.215,0-0.417,0.067-0.609,0.193c-0.192,0.123-0.343,0.298-0.451,0.508
				C320.773,477.241,320.713,477.726,320.713,478.419"/>
		</g>
		<g>
			<path style="fill:#3B3E3F;" d="M245.272,477.908c-0.001-0.003-0.001-0.006-0.001-0.011
				C245.271,477.902,245.271,477.905,245.272,477.908z"/>
			<path style="fill:#3B3E3F;" d="M245.354,478.427c0.002,0,0.002,0,0.002,0c-0.031-0.147-0.055-0.294-0.074-0.438
				C245.301,478.135,245.324,478.28,245.354,478.427z"/>
			<path style="fill:#3B3E3F;" d="M245.89,479.931c-0.003-0.006-0.006-0.014-0.009-0.021
				C245.884,479.917,245.887,479.925,245.89,479.931z"/>
			<path style="fill:#3B3E3F;" d="M245.838,479.83c-0.013-0.026-0.025-0.056-0.039-0.083
				C245.813,479.776,245.825,479.804,245.838,479.83z"/>
			<path style="fill:#3B3E3F;" d="M245.504,479.006c0.08,0.25,0.176,0.492,0.286,0.724c-0.112-0.235-0.206-0.478-0.284-0.724
				C245.506,479.006,245.506,479.006,245.504,479.006z"/>
			<path style="fill:#3B3E3F;" d="M251.546,471.699c0.313,0,0.544,0.023,0.809,0.068l0.076-0.478c0,0-0.732-0.225-1.694-0.146
				l-0.076-0.26c0.299-0.063,0.524-0.329,0.524-0.646c0-0.363-0.298-0.658-0.661-0.658c-0.365,0-0.66,0.295-0.66,0.658
				c0,0.317,0.225,0.584,0.522,0.646l0.085,0.29c-1.022,0.141-1.836,0.539-1.836,0.539l0.145,0.44
				c0.618-0.206,1.153-0.331,1.64-0.384C250.895,471.721,251.254,471.699,251.546,471.699z"/>
			<path style="fill:#3B3E3F;" d="M245.878,474.109l0.003-0.005c0.025-0.03,0.048-0.06,0.07-0.089l-0.194-0.14l-0.306-0.224
				c-0.016,0.023-0.496,0.465-0.875,1.28c-0.016-0.026-0.035-0.052-0.056-0.075c-0.113-0.124-0.272-0.188-0.474-0.184
				c-0.003,0-0.006,0-0.01,0c-0.125,0-0.211-0.042-0.266-0.092c0.055-0.071,0.088-0.16,0.088-0.259c0-0.23-0.188-0.417-0.418-0.417
				s-0.418,0.186-0.418,0.417c0,0.231,0.188,0.418,0.418,0.418c0.037,0,0.07-0.006,0.105-0.014c0.102,0.115,0.264,0.215,0.504,0.209
				c0.123-0.001,0.213,0.03,0.273,0.099c0.069,0.075,0.092,0.184,0.1,0.268c-0.001,0.001-0.001,0.002-0.003,0.002
				c-0.273,0.743-0.193,1.668-0.193,1.668l0.66,0.027c0.013-0.337,0.063-0.927,0.233-1.394
				C245.449,474.7,245.861,474.134,245.878,474.109z"/>
			<path style="fill:#3B3E3F;" d="M257.295,472.25c-0.229,0-0.418,0.188-0.418,0.419c0,0.036,0.006,0.069,0.015,0.103
				c-0.114,0.103-0.214,0.268-0.211,0.507c0.002,0.123-0.029,0.212-0.096,0.273c-0.054,0.046-0.12,0.072-0.185,0.088
				c-0.492-0.689-1.098-1.109-1.098-1.109l-0.475,0.508c0.359,0.326,0.725,0.734,1.08,1.244c0.246,0.352,0.499,0.807,0.71,1.26
				l0.641-0.305c0,0-0.292-0.723-0.703-1.37c0.071-0.024,0.142-0.063,0.206-0.12c0.126-0.112,0.186-0.272,0.184-0.474
				c-0.002-0.13,0.041-0.218,0.092-0.276c0.072,0.056,0.162,0.089,0.258,0.089c0.232,0,0.419-0.186,0.419-0.417
				C257.714,472.438,257.527,472.25,257.295,472.25z"/>
			<path style="fill:#3B3E3F;" d="M255.636,478.003c-0.882,0.428-2.331,0.995-4.239,1.262c-0.75,0.104-1.475,0.141-2.144,0.141
				c-0.869,0-1.638-0.064-2.227-0.139c-0.673-0.084-1.198-0.189-1.521-0.261c0.078,0.245,0.172,0.488,0.284,0.724
				c0.002,0.006,0.005,0.014,0.009,0.018c0.014,0.027,0.026,0.057,0.039,0.083c0.014,0.027,0.027,0.055,0.043,0.08
				c0.003,0.007,0.006,0.015,0.009,0.021c0.189,0.356,0.418,0.685,0.677,0.969c0.899,0.983,1.816,1.14,1.825,1.142l0.015,0.001
				l0.013,0.004c0.009,0.004,0.821,0.267,2.058,0.267c1.216,0,2.409-0.245,3.546-0.73c0.842-0.43,1.639-1.085,2.034-1.668
				c0.305-0.452,0.525-0.933,0.655-1.433c0.07-0.267,0.126-0.693,0.092-1.142C256.557,477.507,256.165,477.743,255.636,478.003z"/>
			<path style="fill:#3B3E3F;" d="M246.16,474.318c-0.025,0.038-0.406,0.579-0.709,1.408c-0.225,0.622-0.215,1.527-0.215,1.536
				v0.004c0,0.212,0.012,0.422,0.035,0.631c0,0.005,0,0.008,0.001,0.011c0.002,0.026,0.007,0.053,0.009,0.08
				c0.02,0.145,0.043,0.291,0.074,0.438c0.438,0.111,3.049,0.721,5.968,0.314c1.83-0.256,3.22-0.796,4.063-1.205
				c0.701-0.34,1.151-0.647,1.324-0.774c-0.173-0.642-0.65-1.65-1.088-2.279c-1.255-1.79-2.606-2.249-3.299-2.363
				c-0.266-0.043-0.478-0.069-0.777-0.069c-0.28,0-0.627,0.023-1.089,0.072c-0.465,0.048-0.982,0.17-1.584,0.373
				c-0.842,0.281-1.604,0.724-2.204,1.278l-0.021,0.02C246.561,473.876,246.375,474.047,246.16,474.318z M253.829,473.901
				c0.601,0,1.091,0.489,1.091,1.09c0,0.602-0.49,1.09-1.091,1.09c-0.601,0-1.088-0.488-1.088-1.09
				C252.741,474.391,253.229,473.901,253.829,473.901z M248.678,473.858c0.974,0,1.762,0.788,1.762,1.761
				c0,0.973-0.788,1.759-1.762,1.759c-0.972,0-1.759-0.786-1.759-1.759C246.919,474.647,247.706,473.858,248.678,473.858z"/>
		</g>
	</g>
</g>
<g id="OBJECTS">
	<g>
		<g>
			<path style="fill:#54A6EF;" d="M128.098,199.629c0,10.199-8.346,18.545-18.545,18.545H56.235c-10.2,0-18.546-8.346-18.546-18.545
				V50.696c0-10.2,8.346-18.545,18.546-18.545h53.317c10.199,0,18.545,8.345,18.545,18.545V199.629z"/>
			<g>
				<path style="fill:#3D9DD8;" d="M59.645,67.712c0,0,1.256-1.799,3.142-4.496c0.463-0.667,0.965-1.391,1.495-2.156
					c0.543-0.752,1.056-1.588,1.636-2.411c0.556-0.84,1.129-1.705,1.713-2.587c0.543-0.903,1.166-1.776,1.699-2.703
					c0.556-0.912,1.131-1.814,1.638-2.732c0.259-0.457,0.521-0.908,0.788-1.351c0.261-0.444,0.478-0.903,0.725-1.34
					c0.481-0.88,0.965-1.723,1.355-2.554c0.396-0.831,0.842-1.595,1.153-2.336c0.327-0.738,0.655-1.407,0.951-2.007
					c0.246-0.611,0.478-1.145,0.668-1.586c0.384-0.881,0.639-1.388,0.639-1.388s-0.011,0.554-0.093,1.524
					c-0.042,0.485-0.081,1.081-0.178,1.755c-0.122,0.666-0.265,1.421-0.452,2.237c-0.155,0.83-0.438,1.689-0.735,2.604
					c-0.151,0.456-0.288,0.933-0.463,1.406c-0.177,0.472-0.387,0.942-0.582,1.43c-0.388,0.978-0.858,1.951-1.37,2.924
					c-0.478,0.995-1.071,1.939-1.638,2.899c-0.57,0.961-1.227,1.863-1.846,2.768c-0.649,0.882-1.306,1.737-1.972,2.539
					c-0.673,0.796-1.338,1.551-2.003,2.236c-0.643,0.704-1.298,1.326-1.911,1.892c-1.21,1.141-2.305,2.001-3.091,2.574
					C60.13,67.433,59.645,67.712,59.645,67.712z"/>
				<path style="fill:#3D9DD8;" d="M106.143,67.712c0,0-1.258-1.799-3.144-4.496c-0.462-0.667-0.965-1.391-1.494-2.156
					c-0.544-0.752-1.058-1.588-1.636-2.411c-0.557-0.84-1.131-1.705-1.713-2.587c-0.542-0.903-1.168-1.776-1.699-2.703
					c-0.556-0.912-1.13-1.814-1.64-2.732c-0.257-0.457-0.521-0.908-0.787-1.351c-0.259-0.444-0.478-0.903-0.724-1.34
					c-0.48-0.88-0.966-1.723-1.356-2.554c-0.395-0.831-0.84-1.595-1.153-2.336c-0.327-0.738-0.655-1.407-0.949-2.007
					c-0.249-0.611-0.478-1.145-0.671-1.586c-0.384-0.881-0.639-1.388-0.639-1.388s0.012,0.554,0.093,1.524
					c0.045,0.485,0.082,1.081,0.178,1.755c0.123,0.666,0.265,1.421,0.453,2.237c0.155,0.83,0.438,1.689,0.735,2.604
					c0.151,0.456,0.29,0.933,0.465,1.406c0.178,0.472,0.385,0.942,0.58,1.43c0.387,0.978,0.858,1.951,1.37,2.924
					c0.478,0.995,1.071,1.939,1.638,2.899c0.573,0.961,1.226,1.863,1.847,2.768c0.647,0.882,1.306,1.737,1.972,2.539
					c0.673,0.796,1.337,1.551,2.004,2.236c0.641,0.704,1.298,1.326,1.91,1.892c1.21,1.141,2.304,2.001,3.091,2.574
					C105.655,67.433,106.143,67.712,106.143,67.712z"/>
			</g>
		</g>
		<g>
			<g>
				<path style="fill:#2E6579;" d="M120.673,86.735c0,0-1.418-17.867-37.752-17.887v-0.001c-0.009,0-0.019,0-0.027,0
					c-0.009,0-0.019,0-0.027,0v0.001c-36.335,0.02-37.752,17.887-37.752,17.887l11.415,22.082c9.292-2.544,25.773-2.59,26.364-2.591
					c0.591,0.001,17.071,0.047,26.364,2.591L120.673,86.735z"/>
				<polygon style="fill:#2E6579;" points="41.939,91.358 54.928,111.715 46.395,170.948 				"/>
				<polygon style="fill:#2E6579;" points="123.855,91.358 110.868,111.715 119.401,170.948 				"/>
				<path style="fill:#2E6579;" d="M82.894,184.471c-28.977,0-36.499-10.817-36.499-10.817v11.59
					c6.75,20.091,36.499,20.091,36.499,20.091s36.5,0,36.5-20.091v-11.59C119.394,173.653,111.871,184.471,82.894,184.471z"/>
			</g>
			<g>
				<g>
					<path style="fill:#EAC14E;" d="M110.868,32.218c0.148,0.327,5.313,11.573,17.066,16.154
						C126.835,39.691,119.683,32.846,110.868,32.218z"/>
					<path style="fill:#EAC14E;" d="M54.928,32.218c-0.149,0.327-5.313,11.573-17.067,16.154
						C38.961,39.691,46.112,32.846,54.928,32.218z"/>
				</g>
				<g>
					<path style="fill:#BC3B26;" d="M114.913,211.709c-3.041,0-5.506,2.465-5.506,5.506c0,0.328,0.042,0.646,0.097,0.959h0.049
						c3.838,0,7.413-1.184,10.38-3.201C119.073,213.053,117.154,211.709,114.913,211.709z"/>
					<path style="fill:#BC3B26;" d="M50.816,211.709c3.041,0,5.506,2.465,5.506,5.506c0,0.328-0.041,0.646-0.097,0.959h-0.048
						c-3.839,0-7.413-1.184-10.38-3.201C46.657,213.053,48.576,211.709,50.816,211.709z"/>
				</g>
				<g>
					<path style="fill:#54A6EF;" d="M39.41,99.564c0,0-14.17,3.064-12.913,12.972l8.371-3.628l1.536-4.467l3.006-2.093V99.564z"/>
					<path style="fill:#54A6EF;" d="M127.547,99.564c0,0,14.171,3.064,12.914,12.972l-8.371-3.628l-1.536-4.467l-3.007-2.093V99.564
						z"/>
				</g>
			</g>
		</g>
	</g>
	<g>
		<g>
			<g>
				<path style="fill:#B1C5D0;" d="M295.814,199.629c0,10.199-8.345,18.545-18.544,18.545h-53.318
					c-10.199,0-18.545-8.346-18.545-18.545V50.696c0-10.2,8.346-18.545,18.545-18.545h53.318c10.199,0,18.544,8.345,18.544,18.545
					V199.629z"/>
				<g>
					<g>
						<path style="fill:#EAC14E;" d="M278.585,32.218c0.148,0.327,5.313,11.573,17.067,16.154
							C294.552,39.691,287.399,32.846,278.585,32.218z"/>
						<path style="fill:#EAC14E;" d="M222.645,32.218c-0.149,0.327-5.313,11.573-17.067,16.154
							C206.678,39.691,213.83,32.846,222.645,32.218z"/>
					</g>
					<g>
						<path style="fill:#BC3B26;" d="M282.631,211.709c-3.041,0-5.506,2.465-5.506,5.506c0,0.328,0.042,0.646,0.097,0.959h0.049
							c3.838,0,7.413-1.184,10.379-3.201C286.79,213.053,284.871,211.709,282.631,211.709z"/>
						<path style="fill:#BC3B26;" d="M218.534,211.709c3.041,0,5.506,2.465,5.506,5.506c0,0.328-0.041,0.646-0.097,0.959h-0.048
							c-3.839,0-7.413-1.184-10.38-3.201C214.375,213.053,216.294,211.709,218.534,211.709z"/>
					</g>
				</g>
			</g>
			<g>
				<path style="fill:#B1C5D0;" d="M207.128,99.564c0,0-14.17,3.064-12.913,12.972l8.371-3.628l1.536-4.467l3.006-2.093V99.564z"/>
				<path style="fill:#B1C5D0;" d="M295.265,99.564c0,0,14.17,3.064,12.913,12.972l-8.371-3.628l-1.535-4.467l-3.007-2.093V99.564z"
					/>
			</g>
		</g>
		<g>
			<path style="fill:#2E6579;" d="M250.611,69.398c-20.975,0-34.792,7.896-34.792,7.896l4.935,25.841
				c15.792-3.524,29.857-2.892,29.857-2.892s14.064-0.633,29.857,2.892l4.935-25.841C285.403,77.294,271.586,69.398,250.611,69.398z
				"/>
			<polygon style="fill:#2E6579;" points="211.275,81.754 218.777,106.051 218.777,172.333 211.275,200.554 			"/>
			<polygon style="fill:#2E6579;" points="290.298,81.754 282.795,106.051 282.795,172.333 290.298,200.554 			"/>
			<path style="fill:#2E6579;" d="M274.064,131.922c0,4.249-3.477,7.727-7.726,7.727h-31.454c-4.249,0-7.726-3.478-7.726-7.727
				v-13.52c0-4.249,3.477-7.725,7.726-7.725h31.454c4.249,0,7.726,3.476,7.726,7.725V131.922z"/>
			<path style="fill:#2E6579;" d="M280.963,189.646c0,0-8.004,2.359-30.352,2.359c-22.349,0-30.352-2.359-30.352-2.359
				l-1.806,12.173c17.023,3.515,32.157,3.515,32.157,3.515s16.297,0,32.157-3.515L280.963,189.646z"/>
		</g>
		<path style="fill:#90A5AF;" d="M214.111,75.132c0,0,0.067-0.663,0.25-1.802c0.182-1.14,0.464-2.76,0.891-4.674
			c0.405-1.922,0.964-4.136,1.598-6.496c0.648-2.355,1.403-4.848,2.214-7.321c0.819-2.47,1.692-4.923,2.572-7.202
			c0.895-2.274,1.763-4.386,2.581-6.172c0.797-1.793,1.536-3.262,2.068-4.285c0.532-1.023,0.873-1.596,0.873-1.596
			s-0.066,0.663-0.248,1.803c-0.18,1.139-0.461,2.759-0.888,4.674c-0.403,1.923-0.963,4.136-1.598,6.496
			c-0.649,2.357-1.406,4.847-2.219,7.319c-0.819,2.471-1.695,4.922-2.576,7.201c-0.895,2.275-1.763,4.386-2.581,6.172
			c-0.797,1.793-1.533,3.263-2.065,4.286C214.452,74.559,214.111,75.132,214.111,75.132z"/>
		<path style="fill:#90A5AF;" d="M285.108,75.132c0,0-0.067-0.663-0.25-1.802c-0.182-1.14-0.464-2.76-0.891-4.674
			c-0.405-1.922-0.964-4.136-1.598-6.496c-0.648-2.355-1.403-4.848-2.214-7.321c-0.818-2.47-1.691-4.923-2.572-7.202
			c-0.894-2.274-1.763-4.386-2.581-6.172c-0.797-1.793-1.535-3.262-2.067-4.285c-0.532-1.023-0.874-1.596-0.874-1.596
			s0.066,0.663,0.248,1.803c0.18,1.139,0.461,2.759,0.888,4.674c0.404,1.923,0.963,4.136,1.599,6.496
			c0.648,2.357,1.405,4.847,2.218,7.319c0.819,2.471,1.695,4.922,2.576,7.201c0.895,2.275,1.763,4.386,2.581,6.172
			c0.797,1.793,1.534,3.263,2.066,4.286C284.768,74.559,285.108,75.132,285.108,75.132z"/>
	</g>
	<g>
		<path style="fill:#FF5C65;" d="M461.141,199.629c0,10.199-8.346,18.545-18.544,18.545h-53.318c-10.2,0-18.545-8.346-18.545-18.545
			V50.696c0-10.2,8.345-18.545,18.545-18.545h53.318c10.198,0,18.544,8.345,18.544,18.545V199.629z"/>
		<g>
			<g>
				<path style="fill:#EAC14E;" d="M443.911,32.218c0.149,0.327,5.312,11.573,17.066,16.154
					C459.878,39.691,452.726,32.846,443.911,32.218z"/>
				<path style="fill:#EAC14E;" d="M387.971,32.218c-0.148,0.327-5.313,11.573-17.067,16.154
					C372.003,39.691,379.155,32.846,387.971,32.218z"/>
			</g>
			<g>
				<path style="fill:#BC3B26;" d="M447.957,211.709c-3.041,0-5.507,2.465-5.507,5.506c0,0.328,0.043,0.646,0.097,0.959h0.05
					c3.837,0,7.413-1.184,10.379-3.201C452.115,213.053,450.197,211.709,447.957,211.709z"/>
				<path style="fill:#BC3B26;" d="M383.86,211.709c3.04,0,5.506,2.465,5.506,5.506c0,0.328-0.042,0.646-0.097,0.959h-0.049
					c-3.838,0-7.413-1.184-10.38-3.201C379.701,213.053,381.619,211.709,383.86,211.709z"/>
			</g>
		</g>
		<g>
			<path style="fill:#FF5C65;" d="M372.454,99.564c0,0-14.171,3.064-12.915,12.972l8.373-3.628l1.535-4.467l3.007-2.093V99.564z"/>
			<path style="fill:#FF5C65;" d="M460.592,99.564c0,0,14.168,3.064,12.911,12.972l-8.37-3.628l-1.536-4.467l-3.005-2.093V99.564z"
				/>
		</g>
		<g>
			<g>
				<path style="fill:#E23042;" d="M377.823,65.015c0,0,0.854-2.037,2.38-4.936c0.754-1.456,1.674-3.129,2.7-4.896
					c0.522-0.877,1.034-1.801,1.604-2.709c0.563-0.912,1.135-1.839,1.706-2.766c0.594-0.913,1.186-1.826,1.771-2.725
					c0.573-0.905,1.193-1.762,1.764-2.608c1.157-1.684,2.277-3.229,3.27-4.533c1.971-2.618,3.449-4.259,3.449-4.259
					s-0.852,2.038-2.378,4.938c-0.753,1.456-1.672,3.129-2.699,4.895c-0.523,0.877-1.033,1.803-1.605,2.709
					c-0.563,0.912-1.136,1.838-1.707,2.765c-0.594,0.913-1.188,1.825-1.771,2.725c-0.578,0.902-1.194,1.761-1.765,2.607
					c-1.158,1.682-2.277,3.229-3.272,4.532C379.3,63.373,377.823,65.015,377.823,65.015z"/>
				<path style="fill:#E23042;" d="M454.052,65.015c0,0-0.854-2.037-2.38-4.936c-0.755-1.456-1.674-3.129-2.7-4.896
					c-0.522-0.877-1.035-1.801-1.603-2.709c-0.565-0.912-1.135-1.839-1.706-2.766c-0.595-0.913-1.186-1.826-1.771-2.725
					c-0.573-0.905-1.192-1.762-1.763-2.608c-1.158-1.684-2.277-3.229-3.272-4.533c-1.97-2.618-3.449-4.259-3.449-4.259
					s0.852,2.038,2.378,4.938c0.754,1.456,1.673,3.129,2.7,4.895c0.522,0.877,1.032,1.803,1.604,2.709
					c0.564,0.912,1.136,1.838,1.707,2.765c0.594,0.913,1.189,1.825,1.772,2.725c0.577,0.902,1.194,1.761,1.764,2.607
					c1.159,1.682,2.277,3.229,3.272,4.532C452.575,63.373,454.052,65.015,454.052,65.015z"/>
			</g>
			<g>
				<g>
					<path style="fill:#2E6579;" d="M453.964,68.446c0,0-5.561-9.904-38.026-9.904c-32.467,0-38.026,9.904-38.026,9.904
						c-0.897,4.245,5.382,32.545,5.382,32.545c10.358-3.36,32.645-3.891,32.645-3.891s22.285,0.53,32.644,3.891
						C448.581,100.991,454.86,72.691,453.964,68.446z"/>
					<path style="fill:#2E6579;" d="M449.744,194.008c0,0-13.347,6.923-33.807,6.923c-20.46,0-33.808-6.923-33.808-6.923
						l-1.43,8.276c14.208,11.3,35.237,9.414,35.237,9.414s21.028,1.886,35.237-9.414L449.744,194.008z"/>
					<polygon style="fill:#2E6579;" points="374.945,75.132 380.7,106.051 380.7,187.102 374.945,200.554 					"/>
					<polygon style="fill:#2E6579;" points="456.929,75.132 451.175,106.051 451.175,187.102 456.929,200.554 					"/>
				</g>
				<g>
					<g>
						<path style="fill:#E23042;" d="M398.692,110.342c0,25.587,0,51.174,0,76.761c0,0.89,1.38,0.89,1.38,0
							c0-25.587,0-51.174,0-76.761C400.072,109.452,398.692,109.452,398.692,110.342L398.692,110.342z"/>
					</g>
					<g>
						<path style="fill:#E23042;" d="M409.729,110.342c0,25.587,0,51.174,0,76.761c0,0.89,1.379,0.89,1.379,0
							c0-25.587,0-51.174,0-76.761C411.108,109.452,409.729,109.452,409.729,110.342L409.729,110.342z"/>
					</g>
					<g>
						<path style="fill:#E23042;" d="M420.766,110.342c0,25.587,0,51.174,0,76.761c0,0.89,1.38,0.89,1.38,0
							c0-25.587,0-51.174,0-76.761C422.145,109.452,420.766,109.452,420.766,110.342L420.766,110.342z"/>
					</g>
					<g>
						<path style="fill:#E23042;" d="M431.803,110.342c0,25.587,0,51.174,0,76.761c0,0.89,1.379,0.89,1.379,0
							c0-25.587,0-51.174,0-76.761C433.182,109.452,431.803,109.452,431.803,110.342L431.803,110.342z"/>
					</g>
				</g>
			</g>
		</g>
	</g>
	<g>
		<path style="fill:#44B8A1;" d="M461.141,427.303c0,10.2-8.346,18.545-18.544,18.545h-53.318c-10.2,0-18.545-8.345-18.545-18.545
			V278.37c0-10.199,8.345-18.546,18.545-18.546h53.318c10.198,0,18.544,8.347,18.544,18.546V427.303z"/>
		<g>
			<g>
				<path style="fill:#EAC14E;" d="M443.911,259.892c0.149,0.327,5.312,11.573,17.066,16.155
					C459.878,267.365,452.726,260.521,443.911,259.892z"/>
				<path style="fill:#EAC14E;" d="M387.971,259.892c-0.148,0.327-5.313,11.573-17.067,16.155
					C372.003,267.365,379.155,260.521,387.971,259.892z"/>
			</g>
			<g>
				<path style="fill:#BC3B26;" d="M447.957,439.383c-3.041,0-5.507,2.465-5.507,5.506c0,0.329,0.043,0.646,0.097,0.959h0.05
					c3.837,0,7.413-1.184,10.379-3.201C452.115,440.726,450.197,439.383,447.957,439.383z"/>
				<path style="fill:#BC3B26;" d="M383.86,439.383c3.04,0,5.506,2.465,5.506,5.506c0,0.329-0.042,0.646-0.097,0.959h-0.049
					c-3.838,0-7.413-1.184-10.38-3.201C379.701,440.726,381.619,439.383,383.86,439.383z"/>
			</g>
		</g>
		<g>
			<path style="fill:#44B8A1;" d="M372.454,327.238c0,0-14.171,3.064-12.915,12.973l8.373-3.628l1.535-4.467l3.007-2.093V327.238z"
				/>
			<path style="fill:#44B8A1;" d="M460.592,327.238c0,0,14.168,3.064,12.911,12.973l-8.37-3.628l-1.536-4.467l-3.005-2.093V327.238z
				"/>
		</g>
		<g>
			<path style="fill:#2E6579;" d="M415.938,293.895c0,0-27.172-1.155-34.515,11.271l6.975,28.646c0,0,9.18-3.105,27.539-3.105
				c18.36,0,27.54,3.105,27.54,3.105l6.975-28.646C443.108,292.739,415.938,293.895,415.938,293.895z"/>
			<path style="fill:#2E6579;" d="M443.328,393.836c0,0-8.37,4.946-27.391,4.946s-27.391-4.946-27.391-4.946
				s-5.706,20.543-1.902,27.01c3.806,6.467,29.293,7.609,29.293,7.609s25.487-1.143,29.293-7.609
				C449.034,414.379,443.328,393.836,443.328,393.836z"/>
			<polygon style="fill:#2E6579;" points="376.741,307.264 385.337,336.279 387.971,387.808 376.741,419.502 			"/>
			<polygon style="fill:#2E6579;" points="456.066,307.264 447.472,336.279 444.837,387.808 456.066,419.502 			"/>
		</g>
		<g>
			<path style="fill:#2EA08A;" d="M386.439,293.866c0,0-0.094-0.629-0.094-1.743c0.002-0.557,0.02-1.235,0.091-2.009
				c0.081-0.773,0.164-1.652,0.369-2.592c0.148-0.952,0.438-1.954,0.735-3.02c0.361-1.04,0.697-2.171,1.224-3.261
				c0.258-0.549,0.521-1.105,0.786-1.671c0.268-0.564,0.615-1.094,0.94-1.641c0.621-1.119,1.423-2.139,2.193-3.184
				c0.375-0.531,0.828-0.995,1.271-1.464c0.441-0.471,0.883-0.939,1.318-1.403c0.906-0.893,1.921-1.642,2.835-2.431
				c0.965-0.727,1.977-1.32,2.897-1.925c0.906-0.63,1.902-0.989,2.75-1.429c0.867-0.41,1.643-0.813,2.398-1.024
				c0.737-0.238,1.38-0.446,1.908-0.618c1.06-0.326,1.667-0.491,1.667-0.491s-0.544,0.34-1.494,0.896
				c-0.476,0.271-1.053,0.6-1.716,0.976c-0.68,0.334-1.362,0.868-2.142,1.369c-0.386,0.258-0.787,0.524-1.203,0.802
				c-0.419,0.269-0.853,0.543-1.253,0.893c-0.819,0.669-1.708,1.335-2.588,2.063c-0.827,0.792-1.7,1.587-2.549,2.427
				c-0.4,0.443-0.804,0.892-1.209,1.342c-0.407,0.445-0.821,0.89-1.164,1.392c-0.736,0.963-1.513,1.9-2.113,2.938
				c-0.306,0.513-0.663,0.99-0.95,1.501c-0.282,0.517-0.562,1.025-0.836,1.525c-0.294,0.492-0.504,1.015-0.745,1.51
				c-0.231,0.501-0.484,0.982-0.683,1.47c-0.367,0.983-0.786,1.898-1.059,2.782c-0.617,1.748-0.991,3.261-1.246,4.326
				c-0.111,0.536-0.218,0.957-0.264,1.248C386.457,293.709,386.439,293.866,386.439,293.866z"/>
			<path style="fill:#2EA08A;" d="M445.435,293.866c0,0,0.094-0.629,0.094-1.743c-0.002-0.557-0.021-1.235-0.092-2.009
				c-0.081-0.773-0.164-1.652-0.368-2.592c-0.149-0.952-0.438-1.954-0.735-3.02c-0.362-1.04-0.697-2.171-1.225-3.261
				c-0.258-0.549-0.52-1.105-0.785-1.671c-0.268-0.564-0.616-1.094-0.941-1.641c-0.621-1.119-1.423-2.139-2.193-3.184
				c-0.375-0.531-0.827-0.995-1.271-1.464c-0.442-0.471-0.883-0.939-1.319-1.403c-0.905-0.893-1.921-1.642-2.835-2.431
				c-0.964-0.727-1.977-1.32-2.896-1.925c-0.906-0.63-1.902-0.989-2.751-1.429c-0.866-0.41-1.643-0.813-2.396-1.024
				c-0.737-0.238-1.38-0.446-1.909-0.618c-1.06-0.326-1.666-0.491-1.666-0.491s0.543,0.34,1.494,0.896
				c0.475,0.271,1.053,0.6,1.716,0.976c0.68,0.334,1.362,0.868,2.142,1.369c0.386,0.258,0.786,0.524,1.202,0.802
				c0.42,0.269,0.853,0.543,1.254,0.893c0.819,0.669,1.707,1.335,2.588,2.063c0.826,0.792,1.699,1.587,2.549,2.427
				c0.399,0.443,0.803,0.892,1.208,1.342c0.407,0.445,0.821,0.89,1.164,1.392c0.737,0.963,1.514,1.9,2.113,2.938
				c0.307,0.513,0.663,0.99,0.951,1.501c0.282,0.517,0.562,1.025,0.835,1.525c0.294,0.492,0.505,1.015,0.746,1.51
				c0.23,0.501,0.483,0.982,0.682,1.47c0.368,0.983,0.786,1.898,1.059,2.782c0.618,1.748,0.992,3.261,1.246,4.326
				c0.112,0.536,0.218,0.957,0.264,1.248C445.417,293.709,445.435,293.866,445.435,293.866z"/>
		</g>
	</g>
	<g>
		<path style="fill:#FFDD3E;" d="M295.814,427.303c0,10.2-8.345,18.545-18.544,18.545h-53.318c-10.199,0-18.545-8.345-18.545-18.545
			V278.37c0-10.199,8.346-18.546,18.545-18.546h53.318c10.199,0,18.544,8.347,18.544,18.546V427.303z"/>
		<g>
			<g>
				<path style="fill:#EAC14E;" d="M278.585,259.892c0.148,0.327,5.313,11.573,17.067,16.155
					C294.552,267.365,287.399,260.521,278.585,259.892z"/>
				<path style="fill:#EAC14E;" d="M222.645,259.892c-0.149,0.327-5.313,11.573-17.067,16.155
					C206.678,267.365,213.83,260.521,222.645,259.892z"/>
			</g>
			<g>
				<path style="fill:#BC3B26;" d="M282.631,439.383c-3.041,0-5.506,2.465-5.506,5.506c0,0.329,0.042,0.646,0.097,0.959h0.049
					c3.838,0,7.413-1.184,10.379-3.201C286.79,440.726,284.871,439.383,282.631,439.383z"/>
				<path style="fill:#BC3B26;" d="M218.534,439.383c3.041,0,5.506,2.465,5.506,5.506c0,0.329-0.041,0.646-0.097,0.959h-0.048
					c-3.839,0-7.413-1.184-10.38-3.201C214.375,440.726,216.294,439.383,218.534,439.383z"/>
			</g>
		</g>
		<g>
			<path style="fill:#FFDD3E;" d="M207.128,327.238c0,0-14.17,3.064-12.913,12.973l8.371-3.628l1.536-4.467l3.006-2.093V327.238z"/>
			<path style="fill:#FFDD3E;" d="M295.265,327.238c0,0,14.17,3.064,12.913,12.973l-8.371-3.628l-1.535-4.467l-3.007-2.093V327.238z
				"/>
		</g>
		<g>
			<g>
				<path style="fill:#2E6579;" d="M286.06,295.096c-3.292-6.042-16.584-9.467-34.864-9.467l0,0h-0.001l0,0l0,0
					c-18.279,0-31.571,3.425-34.863,9.467c-3.293,6.041,0,30.409,0,30.409c11.989-5.033,34.854-4.631,34.863-4.631l0,0l0,0h0.001
					l0,0c0.01,0,22.874-0.402,34.864,4.631C286.06,325.505,289.352,301.137,286.06,295.096z"/>
				<path style="fill:#2E6579;" d="M285.029,407.949c0,0,0.398,14.684-33.95,14.684c-34.35,0-33.95-14.684-33.95-14.684
					c-5.647,28.908,33.941,25.129,33.95,25.129C251.089,433.078,290.677,436.857,285.029,407.949z"/>
				<polygon style="fill:#2E6579;" points="209.625,307.264 214.868,332.101 216.578,402.734 209.625,407.949 				"/>
				<polygon style="fill:#2E6579;" points="292.968,307.264 287.725,332.101 286.016,402.734 292.968,407.949 				"/>
			</g>
			<g>
				<g>
					<path style="fill:#F9CD15;" d="M225.808,336.386c3.803,20.767,7.604,41.534,11.404,62.301c0.32,1.749,2.979,1.006,2.661-0.733
						c-3.802-20.767-7.603-41.533-11.404-62.301C228.149,333.903,225.49,334.647,225.808,336.386L225.808,336.386z"/>
				</g>
				<g>
					<path style="fill:#F9CD15;" d="M276.586,336.386c-3.802,20.767-7.604,41.534-11.404,62.301
						c-0.321,1.749-2.978,1.006-2.662-0.733c3.803-20.767,7.603-41.533,11.405-62.301
						C274.245,333.903,276.903,334.647,276.586,336.386L276.586,336.386z"/>
				</g>
			</g>
		</g>
	</g>
	<g>
		<path style="fill:#B6E585;" d="M128.098,427.303c0,10.2-8.346,18.546-18.545,18.546H56.235c-10.2,0-18.546-8.346-18.546-18.546
			V278.371c0-10.2,8.346-18.546,18.546-18.546h53.317c10.199,0,18.545,8.346,18.545,18.546V427.303z"/>
		<g>
			<g>
				<path style="fill:#EAC14E;" d="M110.868,259.893c0.148,0.327,5.313,11.573,17.066,16.155
					C126.835,267.366,119.683,260.521,110.868,259.893z"/>
				<path style="fill:#EAC14E;" d="M54.928,259.893c-0.149,0.327-5.313,11.573-17.067,16.155
					C38.961,267.366,46.112,260.521,54.928,259.893z"/>
			</g>
			<g>
				<path style="fill:#BC3B26;" d="M114.913,439.383c-3.041,0-5.506,2.466-5.506,5.507c0,0.328,0.042,0.646,0.097,0.959h0.049
					c3.838,0,7.413-1.184,10.38-3.201C119.073,440.727,117.154,439.383,114.913,439.383z"/>
				<path style="fill:#BC3B26;" d="M50.816,439.383c3.041,0,5.506,2.466,5.506,5.507c0,0.328-0.041,0.646-0.097,0.959h-0.048
					c-3.839,0-7.413-1.184-10.38-3.201C46.657,440.727,48.576,439.383,50.816,439.383z"/>
			</g>
		</g>
		<g>
			<path style="fill:#B6E585;" d="M39.41,327.238c0,0-14.17,3.065-12.913,12.973l8.371-3.628l1.536-4.467l3.006-2.093V327.238z"/>
			<path style="fill:#B6E585;" d="M127.547,327.238c0,0,14.171,3.065,12.914,12.973l-8.371-3.628l-1.536-4.467l-3.007-2.093V327.238
				z"/>
		</g>
		<g>
			<path style="fill:#2E6579;" d="M83.152,296.407c-44.366,0-33.781,34.506-33.781,34.506c21.182-4.415,33.781-3.863,33.781-3.863
				s12.6-0.552,33.781,3.863C116.934,330.913,127.519,296.407,83.152,296.407z"/>
			<path style="fill:#2E6579;" d="M122.2,422.611l-14.378-6.543c0,0-12.484,3.217-24.929,3.269
				c-12.445-0.052-24.93-3.269-24.93-3.269l-14.378,6.543c11.275,12.791,34.934,12.221,39.001,12.351v0.014
				c0,0,0.106-0.001,0.307-0.005c0.199,0.004,0.306,0.005,0.306,0.005v-0.014C87.267,434.832,110.926,435.402,122.2,422.611z"/>
			<path style="fill:#2E6579;" d="M43.586,325.505c0,0,16.605,53.577,12.736,83.852l-12.736,6.712V325.505z"/>
			<path style="fill:#2E6579;" d="M122.729,325.505c0,0-16.605,53.577-12.737,83.852l12.737,6.712V325.505z"/>
		</g>
		<g>
			<path style="fill:#ABD877;" d="M48.267,296.407c0,0,0.633-0.282,1.688-0.829c1.058-0.542,2.531-1.36,4.21-2.426
				c0.837-0.539,1.719-1.151,2.627-1.815c0.913-0.658,1.808-1.435,2.728-2.225c0.9-0.814,1.802-1.678,2.651-2.612
				c0.85-0.935,1.67-1.917,2.404-2.963c0.371-0.52,0.748-1.036,1.071-1.584c0.348-0.534,0.67-1.079,0.971-1.633
				c0.611-1.102,1.146-2.227,1.615-3.342c0.454-1.121,0.885-2.22,1.205-3.298c0.186-0.532,0.321-1.062,0.452-1.578
				c0.135-0.515,0.301-1.009,0.397-1.496c0.189-0.974,0.437-1.867,0.557-2.677c0.13-0.807,0.303-1.516,0.366-2.103
				c0.171-1.179,0.307-1.865,0.307-1.865s0.153,0.67,0.353,1.866c0.115,0.598,0.179,1.328,0.24,2.174
				c0.093,0.846,0.078,1.802,0.063,2.852c-0.057,1.046-0.093,2.196-0.325,3.387c-0.179,1.199-0.456,2.459-0.852,3.735
				c-0.4,1.272-0.893,2.575-1.532,3.833c-0.608,1.273-1.372,2.497-2.203,3.666c-0.843,1.163-1.774,2.261-2.777,3.249
				c-0.991,1.001-2.06,1.883-3.131,2.675c-2.167,1.552-4.369,2.703-6.334,3.444c-1.955,0.769-3.66,1.159-4.857,1.358
				C48.964,296.405,48.267,296.407,48.267,296.407z"/>
			<path style="fill:#ABD877;" d="M116.067,296.407c0,0-0.633-0.282-1.688-0.829c-1.057-0.542-2.531-1.36-4.21-2.426
				c-0.837-0.539-1.718-1.151-2.626-1.815c-0.914-0.658-1.809-1.435-2.729-2.225c-0.9-0.814-1.801-1.678-2.651-2.612
				c-0.849-0.935-1.67-1.917-2.404-2.963c-0.371-0.52-0.748-1.036-1.071-1.584c-0.347-0.534-0.669-1.079-0.97-1.633
				c-0.612-1.102-1.146-2.227-1.616-3.342c-0.453-1.121-0.885-2.22-1.205-3.298c-0.186-0.532-0.321-1.062-0.452-1.578
				c-0.135-0.515-0.301-1.009-0.397-1.496c-0.188-0.974-0.437-1.867-0.557-2.677c-0.129-0.807-0.302-1.516-0.366-2.103
				c-0.17-1.179-0.307-1.865-0.307-1.865s-0.153,0.67-0.353,1.866c-0.115,0.598-0.179,1.328-0.239,2.174
				c-0.093,0.846-0.079,1.802-0.063,2.852c0.057,1.046,0.093,2.196,0.326,3.387c0.178,1.199,0.455,2.459,0.851,3.735
				c0.4,1.272,0.893,2.575,1.532,3.833c0.609,1.273,1.372,2.497,2.203,3.666c0.843,1.163,1.773,2.261,2.777,3.249
				c0.991,1.001,2.062,1.883,3.132,2.675c2.167,1.552,4.368,2.703,6.333,3.444c1.955,0.769,3.66,1.159,4.857,1.358
				C115.371,296.405,116.067,296.407,116.067,296.407z"/>
		</g>
	</g>
</g>
</svg>
