<?xml version="1.0" encoding="utf-8"?>
<!-- Generator: Adobe Illustrator 27.5.0, SVG Export Plug-In . SVG Version: 6.00 Build 0)  -->
<svg version="1.1" xmlns="http://www.w3.org/2000/svg" xmlns:xlink="http://www.w3.org/1999/xlink" x="0px" y="0px"
	 viewBox="0 0 500 500" style="enable-background:new 0 0 500 500;" xml:space="preserve">
<g id="BACKGROUND">
	<rect style="fill:#FFFFFF;" width="500" height="500"/>
</g>
<g id="OBJECTS">
	<g>
		<g>
			<g>
				<path style="fill:#414042;" d="M274.978,159.436c0,2.46-1.998,4.453-4.463,4.453h-27.855c-2.465,0-4.461-1.993-4.461-4.453
					v-38.948c0-2.461,1.996-4.453,4.461-4.453h27.855c2.465,0,4.463,1.992,4.463,4.453V159.436z"/>
			</g>
			<g>
				<path style="fill:#414042;" d="M444.544,159.436c0,2.46-1.997,4.453-4.462,4.453h-27.855c-2.465,0-4.461-1.993-4.461-4.453
					v-38.948c0-2.461,1.996-4.453,4.461-4.453h27.855c2.465,0,4.462,1.992,4.462,4.453V159.436z"/>
			</g>
		</g>
		<g>
			<path style="fill:#E6E7E8;" d="M440.438,75.681c-3.639-5.091-12.011-2.062-12.011-2.062l-6.646,9.189l-2.921,3.541l4.266,0.822
				l2.618-2.909C437.382,84.408,444.072,80.772,440.438,75.681z"/>
			<path style="fill:#E6E7E8;" d="M239.686,75.681c3.638-5.091,12.011-2.062,12.011-2.062l6.645,9.189l2.921,3.541l-4.265,0.822
				l-2.62-2.909C242.741,84.408,236.051,80.772,239.686,75.681z"/>
			<path style="fill:#E6E7E8;" d="M236.922,136.384c0,0,0.815,19.091,22.418,19.091h164.4c21.455,0,22.404-18.824,22.417-19.08
				c-1.601-21.548,2.31-40.906-22.567-53.193l-24.565-36.697c0,0-25.35-1.861-57.94-2.249c-32.588,0.388-57.937,2.249-57.937,2.249
				l-24.563,36.697c-24.875,12.284-20.068,31.638-21.667,53.18L236.922,136.384z"/>
		</g>
		<g>
			<path style="fill:#BE1E2D;" d="M369.573,109.985c0,0-10.729,2.604-26.924,2.604c-16.195,0-29.146-2.604-29.146-2.604
				c-2.382,13.085-0.096,30.961,2.759,45.489h50.557C369.672,140.945,371.956,123.069,369.573,109.985z"/>
			<polygon style="fill:#D1D3D4;" points="361.183,149.434 321.895,149.434 319.01,130.489 364.069,130.489 			"/>
		</g>
		<g>
			<g>
				<path style="fill:#F1F2F2;" d="M391.454,123.416l28.674-5.764l7.107-21.225C427.235,96.427,398.072,94.068,391.454,123.416z"/>
				<g>
					<polygon style="fill:#D1D3D4;" points="388.189,145.784 397.451,145.088 401.735,129.722 392.192,131.422 					"/>
					<polygon style="fill:#D1D3D4;" points="415.228,127.317 405.685,129.018 401.287,144.8 410.55,144.105 					"/>
					<polygon style="fill:#D1D3D4;" points="428.722,124.914 419.18,126.614 414.385,143.816 423.647,143.121 					"/>
					<polygon style="fill:#D1D3D4;" points="432.674,124.21 427.482,142.833 431.723,142.515 437.119,123.416 					"/>
					<polygon style="fill:#D1D3D4;" points="388.241,132.127 384.857,132.729 384.239,134.655 380.491,146.363 384.354,146.072 
											"/>
				</g>
			</g>
			<g>
				<path style="fill:#F1F2F2;" d="M291.832,123.416l-28.673-5.764l-7.107-21.225C256.052,96.427,285.216,94.068,291.832,123.416z"
					/>
				<g>
					<polygon style="fill:#D1D3D4;" points="295.097,145.784 285.835,145.088 281.553,129.722 291.095,131.422 					"/>
					<polygon style="fill:#D1D3D4;" points="268.059,127.317 277.602,129.018 282,144.8 272.737,144.105 					"/>
					<polygon style="fill:#D1D3D4;" points="254.566,124.914 264.108,126.614 268.902,143.816 259.639,143.121 					"/>
					<polygon style="fill:#D1D3D4;" points="250.615,124.21 255.804,142.833 251.565,142.515 246.166,123.416 					"/>
					<polygon style="fill:#D1D3D4;" points="295.047,132.127 298.429,132.729 299.047,134.655 302.796,146.363 298.933,146.072 
											"/>
				</g>
			</g>
		</g>
		<g>
			<path style="fill:#1F354A;" d="M394.521,50.601h-52.982h-52.983c0,0-17.945,28.558-14.545,37.826
				c3.4,9.269,67.528,13.847,67.528,13.847s64.128-4.578,67.527-13.847C412.467,79.158,394.521,50.601,394.521,50.601z"/>
			<path style="opacity:0.1;fill:#FFFFFF;" d="M394.521,50.601h-52.982h-52.983c0,0-17.945,28.558-14.545,37.826
				c0.906,2.475,6.144,4.614,13.332,6.422c18.331-18.52,51.314-39.226,108.281-42.44C394.936,51.265,394.521,50.601,394.521,50.601z
				"/>
		</g>
		<g>
			<path style="fill:#BE1E2D;" d="M428.602,93.819v-7.794c-0.94-0.6-1.922-1.189-2.972-1.761L428.602,93.819z"/>
			<path style="fill:#BE1E2D;" d="M253.611,86.011v7.809l2.977-9.575C255.535,84.818,254.55,85.408,253.611,86.011z"/>
		</g>
	</g>
	<g>
		<path style="fill:#E6E7E8;" d="M126.847,346.281c-32.148,0-66.61-19.079-69.392-40.409c-2.782-21.329,4.327-66.458,4.327-66.458
			s0-73.571,0-92.118s-8.346-35.549,0-74.798c8.346-39.249,65.065-36.164,65.065-36.164s56.719-3.085,65.064,36.164
			c8.346,39.249,0,56.251,0,74.798s0,92.118,0,92.118s7.109,45.129,4.328,66.458C193.456,327.202,158.996,346.281,126.847,346.281z"
			/>
		<g>
			<g>
				<path style="fill:#BE1E2D;" d="M57.901,308.21c0.104,0.436,0.22,0.866,0.348,1.296c0.056,0.187,0.109,0.372,0.169,0.557
					c0.169,0.52,0.355,1.035,0.56,1.552c0.028,0.072,0.052,0.147,0.081,0.22c0.237,0.579,0.5,1.154,0.781,1.73
					c0.086,0.173,0.18,0.35,0.27,0.524c0.21,0.409,0.43,0.817,0.661,1.225c0.112,0.195,0.223,0.389,0.339,0.582
					c0.263,0.438,0.538,0.871,0.825,1.308c0.088,0.13,0.169,0.265,0.259,0.397c0.369,0.542,0.759,1.078,1.164,1.611
					c0.142,0.188,0.293,0.372,0.439,0.557c0.286,0.362,0.579,0.725,0.88,1.08c0.181,0.214,0.363,0.428,0.548,0.641
					c0.306,0.347,0.623,0.692,0.943,1.037c0.176,0.189,0.347,0.38,0.529,0.568c0.468,0.486,0.953,0.967,1.451,1.443
					c0.224,0.216,0.458,0.426,0.689,0.638c0.313,0.289,0.627,0.578,0.95,0.861c0.271,0.238,0.545,0.478,0.823,0.713
					c0.303,0.258,0.612,0.512,0.922,0.764c0.29,0.238,0.578,0.477,0.875,0.708c0.421,0.333,0.853,0.655,1.287,0.98
					c0.464,0.348,0.937,0.686,1.416,1.025c0.275,0.195,0.551,0.391,0.832,0.582c0.384,0.264,0.773,0.524,1.166,0.782
					c0.256,0.166,0.515,0.334,0.775,0.499c0.421,0.271,0.842,0.541,1.273,0.803c0.109,0.068,0.223,0.135,0.333,0.199
					c0.97,0.587,1.962,1.157,2.974,1.714c0.179,0.098,0.354,0.195,0.534,0.293c0.504,0.271,1.015,0.538,1.528,0.803
					c0.194,0.098,0.39,0.197,0.585,0.296c0.542,0.273,1.087,0.544,1.639,0.809c0.003,0.002,0.005,0.002,0.007,0.004
					c1.303,0.622,2.632,1.217,3.984,1.787c0.021,0.01,0.042,0.017,0.064,0.026c0.614,0.258,1.236,0.51,1.86,0.756
					c0.136,0.052,0.272,0.107,0.41,0.16c2.665,1.039,5.41,1.971,8.21,2.782c0.122,0.035,0.243,0.068,0.365,0.103
					c0.674,0.195,1.351,0.381,2.031,0.56c0.006,0,0.014,0.002,0.021,0.004c-9.231-6.194-20.288-20.916-24.872-48.054
					c-1.754-10.381-5.114-22.93-8.594-34.467l-5.213-160.43l-3.679,39.165c0.266,2.645,0.438,5.253,0.438,7.893
					c0,18.546,0,92.118,0,92.118s-1.101,6.988-2.266,16.762c-0.108,0.9-0.215,1.828-0.323,2.774
					c-0.007,0.058-0.014,0.118-0.02,0.179c-0.219,1.923-0.437,3.932-0.646,5.995c-0.007,0.067-0.014,0.136-0.021,0.201
					c-0.102,1.012-0.202,2.034-0.3,3.067c-0.002,0.03-0.005,0.063-0.01,0.095c-0.098,1.05-0.193,2.108-0.286,3.176
					c-0.005,0.068-0.011,0.136-0.017,0.203c-0.087,1.025-0.172,2.056-0.252,3.09c-0.006,0.071-0.012,0.146-0.018,0.221
					c-0.083,1.073-0.16,2.145-0.232,3.22c-0.004,0.05-0.008,0.098-0.011,0.145c-0.069,1.04-0.133,2.077-0.192,3.11
					c-0.005,0.092-0.01,0.186-0.016,0.279c-0.06,1.073-0.114,2.138-0.16,3.198c0,0.009-0.001,0.02-0.001,0.031
					c-0.046,1.049-0.083,2.09-0.114,3.121c-0.003,0.096-0.005,0.194-0.008,0.289c-0.028,0.998-0.05,1.986-0.063,2.961
					c-0.001,0.053-0.002,0.104-0.002,0.156c-0.012,1.008-0.016,1.999-0.011,2.975c0.001,0.076,0.001,0.151,0.002,0.224
					c0.007,0.933,0.023,1.85,0.048,2.746c0.002,0.071,0.004,0.147,0.006,0.221c0.028,0.933,0.066,1.844,0.115,2.732
					c0.002,0.047,0.006,0.092,0.009,0.136c0.048,0.857,0.108,1.689,0.179,2.5c0.007,0.074,0.013,0.15,0.02,0.225
					c0.076,0.836,0.163,1.65,0.264,2.427c0.078,0.602,0.19,1.2,0.318,1.797C57.812,307.852,57.857,308.03,57.901,308.21z"/>
				<path style="fill:#BE1E2D;" d="M196.52,303.243c0.069-0.796,0.13-1.611,0.178-2.455c0.003-0.056,0.006-0.111,0.01-0.167
					c0.049-0.88,0.087-1.778,0.116-2.703c0.001-0.065,0.003-0.132,0.005-0.202c0.025-0.884,0.042-1.786,0.049-2.704
					c0.001-0.092,0.002-0.178,0.002-0.266c0.006-0.97,0.004-1.951-0.008-2.951c0-0.015,0-0.033,0-0.05
					c-0.014-0.993-0.034-1.999-0.063-3.014c-0.003-0.097-0.006-0.193-0.008-0.291c-0.029-0.987-0.064-1.983-0.108-2.986
					c-0.002-0.059-0.004-0.114-0.006-0.17c-0.045-1.049-0.098-2.108-0.156-3.166c-0.004-0.064-0.007-0.125-0.011-0.189
					c-0.057-1.027-0.12-2.058-0.189-3.089c-0.004-0.072-0.009-0.145-0.013-0.216c-0.145-2.169-0.312-4.338-0.495-6.483
					c-0.004-0.043-0.007-0.09-0.012-0.132c-0.466-5.468-1.033-10.771-1.588-15.454l0,0c-1.182-9.972-2.312-17.142-2.312-17.142
					s0-73.571,0-92.118c0-4.218,0.434-8.358,1.002-12.697l-3.229-34.361l-5.213,160.43l0.045-0.02
					c-3.482,11.544-6.845,24.097-8.6,34.486c-4.473,26.476-15.107,41.133-24.196,47.586c0.014-0.006,0.026-0.009,0.041-0.013
					c2.078-0.587,4.128-1.244,6.138-1.957c0.119-0.041,0.237-0.087,0.356-0.127c2.011-0.723,3.981-1.505,5.901-2.345
					c0.016-0.008,0.032-0.014,0.049-0.021c0.581-0.254,1.156-0.516,1.729-0.779c0.163-0.076,0.324-0.152,0.486-0.227
					c1.721-0.811,3.396-1.667,5.019-2.563c0.167-0.093,0.336-0.183,0.501-0.273c0.471-0.267,0.935-0.535,1.395-0.803
					c0.228-0.136,0.455-0.274,0.683-0.408c0.445-0.271,0.89-0.536,1.326-0.811c0.15-0.095,0.295-0.192,0.445-0.287
					c0.8-0.511,1.58-1.032,2.345-1.565c0.27-0.186,0.54-0.373,0.805-0.563c0.352-0.253,0.699-0.509,1.043-0.764
					c0.29-0.216,0.576-0.436,0.86-0.656c0.315-0.243,0.631-0.485,0.939-0.73c0.526-0.422,1.042-0.85,1.545-1.28
					c0.254-0.217,0.497-0.44,0.744-0.661c0.316-0.279,0.63-0.563,0.937-0.849c0.245-0.226,0.485-0.456,0.724-0.686
					c0.322-0.313,0.637-0.624,0.947-0.941c0.194-0.198,0.391-0.394,0.58-0.59c0.462-0.486,0.91-0.981,1.342-1.48
					c0.163-0.185,0.315-0.376,0.475-0.563c0.301-0.359,0.595-0.717,0.879-1.079c0.159-0.202,0.316-0.405,0.471-0.609
					c0.309-0.41,0.605-0.823,0.893-1.237c0.096-0.14,0.198-0.277,0.292-0.413c0.364-0.542,0.706-1.088,1.031-1.633
					c0.103-0.174,0.196-0.346,0.294-0.519c0.233-0.409,0.456-0.821,0.668-1.234c0.096-0.186,0.19-0.373,0.281-0.559
					c0.243-0.501,0.471-1.006,0.682-1.511c0.031-0.076,0.067-0.148,0.097-0.223c0.234-0.576,0.439-1.159,0.628-1.742
					c0.055-0.169,0.103-0.338,0.153-0.506c0.132-0.441,0.251-0.883,0.356-1.327c0.042-0.177,0.085-0.35,0.123-0.526
					c0.127-0.597,0.24-1.191,0.317-1.788c0.1-0.772,0.186-1.575,0.262-2.406C196.507,303.39,196.514,303.317,196.52,303.243z"/>
			</g>
			<path style="opacity:0.2;fill:#FFFFFF;" d="M183.214,305.18c0,6.468,2.065,12.268,5.334,16.219
				c4.231-4.848,6.983-10.113,7.691-15.526c0.779-5.979,0.782-13.835,0.382-22.037C189.041,285.325,183.214,294.314,183.214,305.18z
				"/>
			<path style="opacity:0.2;fill:#FFFFFF;" d="M70.61,305.18c0-10.929-5.895-19.954-13.537-21.366
				c-0.401,8.21-0.4,16.073,0.381,22.059c0.709,5.44,3.49,10.735,7.758,15.603C68.518,317.52,70.61,311.689,70.61,305.18z"/>
		</g>
		<g>
			<g>
				<path style="fill:#F1F2F2;" d="M167.341,59.589l22.707,6.672c-6.063-15.588-20.725-23.115-34.406-26.722L167.341,59.589z"/>
				<path style="fill:#F1F2F2;" d="M97.549,39.67c-13.495,3.647-27.829,11.146-33.852,26.448l22.23-6.53L97.549,39.67z"/>
			</g>
			<path style="fill:#BE1E2D;" d="M150.261,38.297c-12.755-2.54-23.414-1.963-23.414-1.963s-11.134-0.603-24.261,2.136
				c-3.702,14.876-8.092,37.73-5.036,53.421c0,0,11.058-2.512,27.75-2.512c16.693,0,30.041,2.512,30.041,2.512
				C158.408,76.138,153.973,53.169,150.261,38.297z"/>
		</g>
		<g>
			<g>
				<g>
					<path style="fill:#1F354A;" d="M78.83,138.978c0-19.919,22.582-34.905,38.711-34.905h16.315
						c15.737,0,40.414,16.074,41.035,35.333c0.033,0.966-5.652,35.328-5.652,35.328H85.218L78.83,138.978z"/>
					<path style="opacity:0.1;fill:#FFFFFF;" d="M85.218,174.734h84.021c0,0,1.184-7.151,2.467-15.019
						c-56.608-4.034-75.264-32.192-80.782-44.629c-7.035,6.151-12.093,14.468-12.093,23.892L85.218,174.734z"/>
				</g>
				<g>
					<polygon style="fill:#1F354A;" points="158.068,305.18 95.625,305.18 86.352,238.412 167.341,238.412 					"/>
					<path style="opacity:0.1;fill:#FFFFFF;" d="M87.956,249.958c34.857-0.304,58.924,8.037,75.259,18.163l4.126-29.709H86.352
						L87.956,249.958z"/>
				</g>
				<g>
					<path style="fill:#1F354A;" d="M179.537,145.601l-6.322,38.484l2.318,76.583C175.533,260.668,184.173,211.906,179.537,145.601z
						"/>
					<g>
						<path style="opacity:0.1;fill:#FFFFFF;" d="M175.703,168.944l-2.488,15.141l2.318,76.583c0,0,3.798-21.444,5.006-55.222
							C175.903,191.508,175.299,178.167,175.703,168.944z"/>
					</g>
				</g>
				<g>
					<path style="fill:#1F354A;" d="M74.363,145.601l6.322,38.484l-2.318,76.583C78.367,260.668,69.728,211.906,74.363,145.601z"/>
					<path style="opacity:0.1;fill:#FFFFFF;" d="M73.428,207.219c1.274,32.754,4.94,53.449,4.94,53.449l2.318-76.583l-1.651-10.054
						C78.994,183.22,77.786,195.055,73.428,207.219z"/>
				</g>
			</g>
			<polygon style="fill:#1F354A;" points="147.943,310.898 156.754,310.898 145.857,341.27 			"/>
			<polygon style="fill:#1F354A;" points="105.093,310.898 96.284,310.898 107.18,341.27 			"/>
		</g>
		<path style="fill:#E6E7E8;" d="M71.74,147.578c0,0-1.467-6.212-4.971-6.198c-3.504,0.013-9.957,8.21-9.959,12.201
			c-0.003,3.988,1.997,3.385,3.819,2.133C62.449,154.462,71.74,147.578,71.74,147.578z"/>
		<path style="fill:#E6E7E8;" d="M181.954,147.578c0,0,1.467-6.212,4.971-6.198c3.504,0.013,9.957,8.21,9.96,12.201
			c0.002,3.988-1.998,3.385-3.819,2.133C191.244,154.462,181.954,147.578,181.954,147.578z"/>
	</g>
	<g>
		<g>
			<g>
				<g>
					<path style="fill:#414042;" d="M274.978,310.631c0,2.459-1.998,4.451-4.462,4.451h-27.856c-2.465,0-4.461-1.992-4.461-4.451
						v-38.947c0-2.463,1.996-4.453,4.461-4.453h27.856c2.464,0,4.462,1.99,4.462,4.453V310.631z"/>
				</g>
				<g>
					<path style="fill:#414042;" d="M444.544,310.631c0,2.459-1.997,4.451-4.46,4.451h-27.857c-2.464,0-4.461-1.992-4.461-4.451
						v-38.947c0-2.463,1.997-4.453,4.461-4.453h27.857c2.463,0,4.46,1.99,4.46,4.453V310.631z"/>
				</g>
			</g>
			<g>
				<path style="fill:#E6E7E8;" d="M441.908,223.807c-3.637-5.09-12.011-2.061-12.011-2.061l-6.645,9.188l-2.921,3.543l4.266,0.82
					l2.618-2.909C438.852,232.535,445.543,228.899,441.908,223.807z"/>
				<path style="fill:#E6E7E8;" d="M241.156,223.807c3.638-5.09,12.01-2.061,12.01-2.061l6.645,9.188l2.921,3.543l-4.266,0.82
					l-2.619-2.909C244.211,232.535,237.521,228.899,241.156,223.807z"/>
				<path style="fill:#E6E7E8;" d="M236.923,287.579c0,0,0.815,19.091,22.419,19.091h164.4c21.454,0,22.403-18.823,22.417-19.08
					c-1.601-21.547,2.31-40.907-22.568-53.194L399.026,197.7c0,0-25.35-1.861-57.94-2.248c-32.589,0.387-57.938,2.248-57.938,2.248
					l-24.563,36.696c-24.875,12.286-20.068,31.638-21.667,53.182L236.923,287.579z"/>
			</g>
		</g>
		<g>
			<g>
				<path style="fill:#BE1E2D;" d="M369.699,306.67l54.043,0.947c21.454,0,22.403-19.77,22.417-20.027
					c-1.469-19.767,1.684-37.685-16.985-49.998l-1.737,4.744c0,0-38.977,9.881-57.737,15.171V306.67z"/>
				<path style="fill:#BE1E2D;" d="M310.378,257.508c-16.15-2.716-57.735-15.171-57.735-15.171l-1.307-3.564
					c-16.614,12.261-12.997,29.667-14.417,48.805l0.005,0.002c0,0,0.815,20.038,22.419,20.038l51.036-0.947V257.508z"/>
			</g>
			<g>
				<path style="opacity:0.2;fill:#FFFFFF;" d="M279.298,264.487c-1.022,5.049-9.134,7.665-18.117,5.844
					c-8.982-1.823-15.432-7.392-14.408-12.438c1.025-5.051,9.136-7.667,18.117-5.846
					C273.873,253.869,280.323,259.439,279.298,264.487z"/>
				<path style="opacity:0.2;fill:#FFFFFF;" d="M403.867,264.487c1.023,5.049,9.136,7.665,18.119,5.844
					c8.979-1.823,15.431-7.392,14.409-12.438c-1.025-5.051-9.138-7.667-18.118-5.846
					C409.294,253.869,402.845,259.439,403.867,264.487z"/>
			</g>
		</g>
		<g>
			<g>
				<g>
					<path style="fill:#1F354A;" d="M302.763,238.75h77.554l11.05-41.54c-9.893-0.58-28.455-1.499-50.279-1.758
						c-21.182,0.252-39.295,1.126-49.388,1.706L302.763,238.75z"/>
					<path style="opacity:0.1;fill:#FFFFFF;" d="M381.27,196.673c-10.327-0.501-24.393-1.033-40.184-1.221
						c-21.182,0.252-39.295,1.126-49.388,1.706l9.913,37.27C316.985,219.505,341.947,203.553,381.27,196.673z"/>
				</g>
				<g>
					<path style="fill:#1F354A;" d="M418.93,227.432l-15.018-22.434c-4.434,15.99-3.642,27.665-3.642,27.665L418.93,227.432z"/>
					<path style="opacity:0.1;fill:#FFFFFF;" d="M411.586,216.462l-7.674-11.464c-1.983,7.147-2.918,13.429-3.351,18.195
						C403.956,220.887,407.625,218.629,411.586,216.462z"/>
				</g>
				<g>
					<path style="fill:#1F354A;" d="M280.56,232.663c0,0,0.746-10.98-3.256-26.231l-14.269,21.317L280.56,232.663z"/>
					<path style="opacity:0.1;fill:#FFFFFF;" d="M279.21,215.196c-0.469-2.705-1.087-5.643-1.905-8.764l-10.997,16.428
						C270.235,220.217,274.529,217.644,279.21,215.196z"/>
				</g>
			</g>
			<g>
				<polygon style="fill:#1F354A;" points="367.962,243.723 378.828,243.723 365.388,251.871 				"/>
				<polygon style="fill:#1F354A;" points="315.104,243.723 304.237,243.723 317.678,251.871 				"/>
			</g>
		</g>
		<g>
			<g>
				<path style="fill:#414042;" d="M337.529,295.746c0,3.72-3.016,6.735-6.735,6.735c-3.719,0-6.734-3.016-6.734-6.735
					c0-3.719,3.016-6.733,6.734-6.733C334.514,289.013,337.529,292.027,337.529,295.746z"/>
				<path style="fill:#414042;" d="M357.675,295.746c0,3.72-3.015,6.735-6.733,6.735c-3.719,0-6.734-3.016-6.734-6.735
					c0-3.719,3.016-6.733,6.734-6.733C354.66,289.013,357.675,292.027,357.675,295.746z"/>
			</g>
			<g>
				<rect x="317.678" y="261.188" style="fill:#D1D3D4;" width="45.288" height="3.376"/>
				<rect x="317.678" y="270.443" style="fill:#D1D3D4;" width="45.288" height="3.376"/>
				<rect x="317.678" y="279.699" style="fill:#D1D3D4;" width="45.288" height="3.374"/>
			</g>
		</g>
	</g>
	<g>
		<g>
			<path style="fill:#E6E7E8;" d="M93.742,389.806c14.434-7.454,42.03-12.849,82.477-16.179c0,0,38.119-25.061,63.075-29.29
				c24.957-4.232,89.038-0.002,145.507,20.302l27.916-0.653l9.199,54.371c0,0,1.162,7.616-14.594,11.422
				c-15.754,3.806-26.647,4.547-26.647,4.547H226.818H106.432c0,0-25.697,1.321-26.806-8.037
				C78.515,416.93,79.31,397.262,93.742,389.806z"/>
			<path style="fill:#D1D3D4;" d="M190.979,370.407l160.808-10.438c-45.783,21.732-163.163,14.314-163.163,14.314L190.979,370.407z"
				/>
		</g>
		<g>
			<path style="fill:#BE1E2D;" d="M397.174,417.707c-5.244-36.148-41.178-34.742-41.178-34.742l-206.304,1.964L342.801,371.6
				c0,0,9.055-1.802,21.744-3.889c1.171-0.192,2.374-0.388,3.603-0.585c0.075-0.014,0.15-0.024,0.233-0.036
				c2.496-0.398,5.105-0.801,7.789-1.2c0.087-0.012,0.177-0.024,0.262-0.038c1.315-0.195,2.643-0.388,3.987-0.578
				c0.04-0.004,0.082-0.012,0.123-0.018c1.367-0.19,2.744-0.384,4.13-0.57c0.091-0.012,0.178-0.023,0.265-0.036
				c0.045-0.006,0.091-0.011,0.137-0.017l27.644-0.647l9.199,54.371c0,0,1.162,7.616-14.594,11.422
				c-4.571,1.105-8.73,1.95-12.334,2.594C395.714,427.348,397.718,421.46,397.174,417.707z"/>
			<polygon style="fill:#BE1E2D;" points="353.065,423.28 353.065,434.325 226.818,434.325 146.276,434.325 139.096,428.103 
				208.75,413.417 			"/>
			<g>
				<path style="fill:#A7A9AC;" d="M191.607,434.325c-14.437-21.672-8.434-51.515-8.362-51.859l7.734-11.765l1.436-0.134
					l-8.139,12.209c-0.362,1.85-5.7,30.793,8.612,51.549H191.607z"/>
				<path style="fill:#A7A9AC;" d="M275.395,380.135l-0.328-0.198l3.531-16.067l1.047,0.231l-3.369,15.332
					c2.809,1.935,22.628,17.093,17.335,54.893h-1.088C298.153,394.528,275.644,380.285,275.395,380.135z"/>
			</g>
			<path style="opacity:0.2;fill:#FFFFFF;" d="M412.717,363.985l2.547,15.056c-4.065,0.506-9.254-0.459-14.35-2.976
				c-6.029-2.979-10.408-7.38-12.022-11.522L412.717,363.985z"/>
		</g>
		<g>
			<path style="fill:#F1F2F2;" d="M118.862,390.986l-22.19,2.01c0.741-2.068,1.603-3.916,2.541-5.602
				c1.4-0.539,2.738-1.064,4.074-1.577c5.728-1.975,12.609-3.769,20.619-5.382L118.862,390.986z"/>
			<g>
				<polygon style="fill:#D1D3D4;" points="99.106,417.375 105.024,401.267 109.018,400.881 102.879,417.397 				"/>
				<path style="fill:#D1D3D4;" d="M82.102,403.473l7.266-0.698l-5.335,14.521l-4.677-0.026
					C79.581,412.885,80.351,408.013,82.102,403.473z"/>
				<polygon style="fill:#D1D3D4;" points="87.446,417.315 92.915,402.433 101.477,401.608 95.692,417.358 				"/>
			</g>
		</g>
		<g>
			<g>
				<path style="fill:#1F354A;" d="M338.276,434.325c-1.577-3.713-2.451-7.795-2.451-12.083c0-17.07,13.837-30.907,30.907-30.907
					c17.067,0,30.905,13.837,30.905,30.907c0,3.481-0.584,6.825-1.645,9.949c-9.407,1.732-15.318,2.134-15.318,2.134H338.276z"/>
				<path style="fill:#1F354A;" d="M148.108,391.335c17.067,0,30.906,13.837,30.906,30.907c0,4.288-0.874,8.37-2.452,12.083h-56.909
					c-1.579-3.713-2.453-7.795-2.453-12.083C117.201,405.172,131.038,391.335,148.108,391.335z"/>
			</g>
			<g>
				<path style="fill:#414042;" d="M338.147,422.242c0,15.787,12.798,28.583,28.585,28.583s28.584-12.796,28.584-28.583
					c0-15.788-12.797-28.586-28.584-28.586S338.147,406.454,338.147,422.242z"/>
				<path style="fill:#414042;" d="M343.506,422.242c0,12.827,10.399,23.226,23.227,23.226c12.825,0,23.226-10.398,23.226-23.226
					c0-12.829-10.4-23.227-23.226-23.227C353.905,399.016,343.506,409.413,343.506,422.242z"/>
				<g>
					<g>
						<polygon style="fill:#D1D3D4;" points="366.16,424.704 361.556,398.307 366.16,398.307 						"/>
						<polygon style="fill:#D1D3D4;" points="367.221,425.171 367.221,398.307 371.907,398.307 						"/>
					</g>
					<g>
						<polygon style="fill:#D1D3D4;" points="364.311,422.978 384.872,405.793 387.174,409.779 						"/>
						<polygon style="fill:#D1D3D4;" points="364.438,424.133 387.704,410.699 390.046,414.757 						"/>
					</g>
					<g>
						<polygon style="fill:#D1D3D4;" points="364.884,420.517 390.046,429.727 387.743,433.713 						"/>
						<polygon style="fill:#D1D3D4;" points="363.947,421.202 387.213,434.635 384.872,438.69 						"/>
					</g>
					<g>
						<polygon style="fill:#D1D3D4;" points="367.303,419.779 371.905,446.175 367.303,446.175 						"/>
						<polygon style="fill:#D1D3D4;" points="366.24,419.31 366.24,446.175 361.556,446.175 						"/>
					</g>
					<g>
						<polygon style="fill:#D1D3D4;" points="369.149,421.505 348.591,438.69 346.29,434.703 						"/>
						<polygon style="fill:#D1D3D4;" points="369.024,420.351 345.757,433.782 343.416,429.727 						"/>
					</g>
					<g>
						<polygon style="fill:#D1D3D4;" points="368.578,423.967 343.416,414.757 345.718,410.769 						"/>
						<polygon style="fill:#D1D3D4;" points="369.515,423.28 346.247,409.849 348.591,405.793 						"/>
					</g>
				</g>
				<g>
					<path style="fill:#6D6E71;" d="M341.539,422.242c0-13.891,11.302-25.192,25.193-25.192c13.89,0,25.19,11.302,25.19,25.192
						c0,13.891-11.301,25.19-25.19,25.19C352.841,447.433,341.539,436.133,341.539,422.242z M344.754,422.242
						c0,12.117,9.86,21.977,21.978,21.977c12.116,0,21.976-9.859,21.976-21.977c0-12.117-9.859-21.977-21.976-21.977
						C354.614,400.266,344.754,410.125,344.754,422.242z"/>
				</g>
				<path style="fill:#BCBEC0;" d="M357.905,422.242c0,4.873,3.952,8.826,8.827,8.826c4.873,0,8.825-3.953,8.825-8.826
					c0-4.875-3.952-8.825-8.825-8.825C361.857,413.417,357.905,417.367,357.905,422.242z"/>
			</g>
			<g>
				<path style="fill:#414042;" d="M119.524,422.242c0,15.787,12.798,28.583,28.585,28.583c15.786,0,28.583-12.796,28.583-28.583
					c0-15.788-12.798-28.586-28.583-28.586C132.322,393.656,119.524,406.454,119.524,422.242z"/>
				<path style="fill:#414042;" d="M124.882,422.242c0,12.827,10.399,23.226,23.227,23.226c12.826,0,23.226-10.398,23.226-23.226
					c0-12.829-10.399-23.227-23.226-23.227C135.281,399.016,124.882,409.413,124.882,422.242z"/>
				<g>
					<g>
						<polygon style="fill:#D1D3D4;" points="147.536,424.704 142.932,398.307 147.536,398.307 						"/>
						<polygon style="fill:#D1D3D4;" points="148.599,425.171 148.599,398.307 153.283,398.307 						"/>
					</g>
					<g>
						<polygon style="fill:#D1D3D4;" points="145.689,422.978 166.248,405.793 168.548,409.779 						"/>
						<polygon style="fill:#D1D3D4;" points="145.814,424.133 169.081,410.699 171.423,414.757 						"/>
					</g>
					<g>
						<polygon style="fill:#D1D3D4;" points="146.26,420.517 171.423,429.727 169.12,433.713 						"/>
						<polygon style="fill:#D1D3D4;" points="145.323,421.202 168.589,434.635 166.248,438.69 						"/>
					</g>
					<g>
						<polygon style="fill:#D1D3D4;" points="148.678,419.779 153.282,446.175 148.678,446.175 						"/>
						<polygon style="fill:#D1D3D4;" points="147.616,419.31 147.616,446.175 142.932,446.175 						"/>
					</g>
					<g>
						<polygon style="fill:#D1D3D4;" points="150.525,421.505 129.966,438.69 127.666,434.703 						"/>
						<polygon style="fill:#D1D3D4;" points="150.401,420.351 127.133,433.782 124.791,429.727 						"/>
					</g>
					<g>
						<polygon style="fill:#D1D3D4;" points="149.955,423.967 124.791,414.757 127.094,410.769 						"/>
						<polygon style="fill:#D1D3D4;" points="150.891,423.28 127.624,409.849 129.966,405.793 						"/>
					</g>
				</g>
				<g>
					<path style="fill:#6D6E71;" d="M122.916,422.242c0-13.891,11.301-25.192,25.192-25.192c13.89,0,25.19,11.302,25.19,25.192
						c0,13.891-11.3,25.19-25.19,25.19C134.217,447.433,122.916,436.133,122.916,422.242z M126.132,422.242
						c0,12.117,9.859,21.977,21.977,21.977c12.117,0,21.976-9.859,21.976-21.977c0-12.117-9.859-21.977-21.976-21.977
						C135.991,400.266,126.132,410.125,126.132,422.242z"/>
				</g>
				<path style="fill:#BCBEC0;" d="M139.281,422.242c0,4.873,3.952,8.826,8.827,8.826c4.874,0,8.826-3.953,8.826-8.826
					c0-4.875-3.952-8.825-8.826-8.825C143.233,413.417,139.281,417.367,139.281,422.242z"/>
			</g>
		</g>
		<g>
			<path style="fill:#1F354A;" d="M242.68,349.314c0,0,36.742-4.049,109.107,10.656c0,0-67.933,17.785-160.808,10.438
				C190.979,370.407,210.571,358.243,242.68,349.314z"/>
			<path style="opacity:0.1;fill:#FFFFFF;" d="M242.68,349.314c0,0,36.742-4.049,109.107,10.656c0,0-7.957,2.083-22.141,4.527
				c-33.276-6.801-73.193-9.433-119.81-3.564C218.326,357.23,229.434,352.998,242.68,349.314z"/>
		</g>
	</g>
</g>
<g id="DESIGNED_BY_FREEPIK">
	<path style="fill:#414042;" d="M182.964,480.037v-0.153c-0.21,0.239-0.415,0.435-0.62,0.585c-0.203,0.15-0.424,0.265-0.662,0.343
		c-0.238,0.078-0.498,0.117-0.779,0.117c-0.373,0-0.719-0.078-1.037-0.237c-0.316-0.157-0.592-0.384-0.824-0.676
		c-0.232-0.294-0.408-0.638-0.528-1.033c-0.12-0.397-0.18-0.824-0.18-1.285c0-0.975,0.238-1.735,0.714-2.279
		c0.476-0.544,1.102-0.816,1.879-0.816c0.448,0,0.828,0.078,1.136,0.23c0.309,0.155,0.609,0.393,0.902,0.711v-2.301
		c0-0.319,0.063-0.561,0.191-0.725c0.127-0.164,0.309-0.245,0.545-0.245s0.418,0.075,0.545,0.225
		c0.128,0.15,0.191,0.371,0.191,0.665v6.874c0,0.298-0.068,0.52-0.205,0.669c-0.137,0.147-0.314,0.223-0.531,0.223
		c-0.213,0-0.389-0.077-0.528-0.231C183.033,480.542,182.964,480.323,182.964,480.037z M179.897,477.748
		c0,0.423,0.065,0.782,0.197,1.079c0.131,0.297,0.311,0.522,0.539,0.67c0.229,0.152,0.479,0.228,0.749,0.228
		c0.273,0,0.523-0.072,0.75-0.216c0.227-0.142,0.407-0.361,0.542-0.655c0.136-0.295,0.203-0.664,0.203-1.105
		c0-0.415-0.067-0.771-0.203-1.071c-0.135-0.299-0.317-0.527-0.548-0.686c-0.23-0.157-0.482-0.236-0.756-0.236
		c-0.286,0-0.541,0.081-0.766,0.243c-0.225,0.161-0.398,0.393-0.523,0.696C179.959,476.998,179.897,477.349,179.897,477.748z
		 M189.838,478.143h-3.05c0.005,0.353,0.075,0.666,0.215,0.935c0.139,0.272,0.323,0.475,0.554,0.612
		c0.23,0.137,0.484,0.204,0.763,0.204c0.186,0,0.355-0.022,0.511-0.064c0.154-0.045,0.303-0.112,0.448-0.206
		c0.145-0.093,0.277-0.193,0.399-0.301c0.122-0.106,0.279-0.251,0.474-0.434c0.08-0.068,0.194-0.102,0.344-0.102
		c0.16,0,0.289,0.045,0.388,0.132c0.099,0.088,0.149,0.211,0.149,0.371c0,0.141-0.057,0.305-0.166,0.494
		c-0.111,0.188-0.278,0.368-0.5,0.542c-0.224,0.173-0.503,0.316-0.84,0.432c-0.337,0.113-0.725,0.171-1.162,0.171
		c-1.001,0-1.779-0.286-2.334-0.857c-0.557-0.57-0.834-1.346-0.834-2.323c0-0.46,0.067-0.889,0.205-1.281
		c0.138-0.395,0.338-0.732,0.599-1.015c0.264-0.281,0.586-0.497,0.972-0.647c0.384-0.15,0.811-0.226,1.278-0.226
		c0.609,0,1.132,0.128,1.567,0.386c0.436,0.256,0.764,0.589,0.979,0.995c0.216,0.407,0.325,0.823,0.325,1.245
		c0,0.393-0.111,0.646-0.336,0.764C190.561,478.084,190.245,478.143,189.838,478.143z M186.788,477.257h2.827
		c-0.037-0.533-0.183-0.932-0.432-1.196c-0.249-0.265-0.576-0.396-0.984-0.396c-0.388,0-0.708,0.134-0.956,0.402
		C186.994,476.334,186.842,476.731,186.788,477.257z M196.94,478.89c0,0.431-0.105,0.799-0.314,1.105
		c-0.208,0.307-0.519,0.539-0.928,0.696c-0.409,0.159-0.907,0.237-1.493,0.237c-0.56,0-1.039-0.086-1.439-0.257
		c-0.398-0.172-0.693-0.387-0.884-0.643c-0.19-0.257-0.286-0.515-0.286-0.773c0-0.172,0.061-0.318,0.183-0.439
		c0.122-0.122,0.276-0.184,0.463-0.184c0.163,0,0.289,0.04,0.377,0.12c0.087,0.08,0.172,0.192,0.251,0.337
		c0.16,0.278,0.352,0.485,0.574,0.622c0.222,0.138,0.525,0.206,0.911,0.206c0.312,0,0.567-0.069,0.768-0.208
		c0.2-0.14,0.299-0.298,0.299-0.478c0-0.274-0.103-0.474-0.311-0.6c-0.207-0.125-0.549-0.245-1.025-0.36
		c-0.537-0.133-0.974-0.272-1.311-0.419c-0.338-0.145-0.607-0.339-0.809-0.579c-0.201-0.24-0.302-0.536-0.302-0.886
		c0-0.312,0.093-0.607,0.279-0.885c0.187-0.277,0.461-0.499,0.825-0.665c0.362-0.166,0.802-0.249,1.316-0.249
		c0.402,0,0.766,0.042,1.087,0.126c0.322,0.083,0.591,0.196,0.806,0.337c0.215,0.141,0.378,0.297,0.491,0.468
		c0.111,0.172,0.168,0.339,0.168,0.503c0,0.179-0.061,0.325-0.18,0.44c-0.12,0.113-0.29,0.171-0.512,0.171
		c-0.159,0-0.295-0.046-0.408-0.138c-0.111-0.091-0.24-0.229-0.385-0.41c-0.117-0.152-0.256-0.274-0.417-0.366
		c-0.16-0.092-0.377-0.137-0.65-0.137c-0.282,0-0.517,0.06-0.702,0.18c-0.186,0.12-0.281,0.268-0.281,0.448
		c0,0.164,0.069,0.298,0.206,0.402c0.138,0.105,0.321,0.192,0.554,0.26c0.232,0.068,0.552,0.151,0.96,0.252
		c0.483,0.118,0.878,0.259,1.184,0.422c0.307,0.164,0.539,0.357,0.697,0.581C196.861,478.351,196.94,478.603,196.94,478.89z
		 M198.532,473.865c-0.216,0-0.401-0.066-0.557-0.2c-0.153-0.133-0.232-0.321-0.232-0.565c0-0.221,0.08-0.401,0.237-0.545
		c0.158-0.144,0.342-0.215,0.551-0.215c0.202,0,0.382,0.065,0.537,0.194c0.156,0.13,0.234,0.318,0.234,0.565
		c0,0.24-0.076,0.428-0.229,0.563C198.923,473.798,198.742,473.865,198.532,473.865z M199.304,475.476v4.505
		c0,0.311-0.074,0.549-0.223,0.709c-0.148,0.159-0.336,0.239-0.566,0.239c-0.229,0-0.414-0.082-0.557-0.245
		c-0.143-0.165-0.215-0.398-0.215-0.703v-4.46c0-0.308,0.072-0.54,0.215-0.696c0.143-0.156,0.328-0.234,0.557-0.234
		c0.23,0,0.417,0.078,0.566,0.234C199.229,474.98,199.304,475.197,199.304,475.476z M206.133,475.732v4.528
		c0,0.518-0.057,0.963-0.167,1.336c-0.109,0.372-0.286,0.682-0.53,0.926c-0.244,0.242-0.563,0.424-0.956,0.541
		c-0.394,0.118-0.884,0.177-1.472,0.177c-0.536,0-1.016-0.074-1.438-0.225c-0.423-0.15-0.748-0.345-0.978-0.583
		c-0.228-0.237-0.343-0.482-0.343-0.733c0-0.19,0.066-0.346,0.195-0.465c0.129-0.12,0.285-0.18,0.469-0.18
		c0.228,0,0.427,0.101,0.599,0.302c0.083,0.103,0.17,0.208,0.259,0.312c0.091,0.105,0.189,0.194,0.298,0.27
		c0.108,0.072,0.239,0.128,0.391,0.164c0.152,0.035,0.328,0.055,0.526,0.055c0.403,0,0.716-0.056,0.938-0.168
		c0.224-0.113,0.38-0.271,0.469-0.473c0.09-0.2,0.143-0.416,0.157-0.646c0.016-0.231,0.026-0.602,0.034-1.112
		c-0.24,0.336-0.517,0.592-0.831,0.767c-0.313,0.175-0.688,0.262-1.121,0.262c-0.522,0-0.979-0.132-1.368-0.398
		c-0.391-0.267-0.69-0.641-0.899-1.119c-0.209-0.48-0.313-1.033-0.313-1.662c0-0.468,0.063-0.892,0.19-1.268
		c0.128-0.378,0.31-0.695,0.546-0.954c0.236-0.259,0.508-0.454,0.816-0.585c0.309-0.132,0.647-0.197,1.017-0.197
		c0.441,0,0.824,0.085,1.146,0.254c0.324,0.17,0.625,0.435,0.903,0.797v-0.212c0-0.27,0.065-0.478,0.199-0.628
		c0.133-0.148,0.305-0.223,0.515-0.223c0.301,0,0.5,0.099,0.599,0.294C206.082,475.08,206.133,475.363,206.133,475.732z
		 M201.616,477.708c0,0.632,0.137,1.109,0.413,1.434c0.275,0.324,0.634,0.485,1.07,0.485c0.259,0,0.504-0.069,0.734-0.208
		c0.229-0.14,0.418-0.349,0.563-0.628c0.145-0.281,0.217-0.62,0.217-1.019c0-0.635-0.14-1.132-0.419-1.484
		c-0.281-0.355-0.648-0.532-1.106-0.532c-0.444,0-0.802,0.17-1.069,0.509C201.75,476.602,201.616,477.085,201.616,477.708z
		 M208.61,475.452v0.189c0.273-0.361,0.573-0.627,0.898-0.797c0.326-0.169,0.699-0.254,1.122-0.254c0.411,0,0.778,0.09,1.103,0.27
		c0.323,0.179,0.565,0.432,0.725,0.758c0.104,0.191,0.169,0.397,0.199,0.617c0.031,0.222,0.048,0.503,0.048,0.846v2.9
		c0,0.311-0.072,0.549-0.215,0.709c-0.143,0.159-0.329,0.239-0.557,0.239c-0.232,0-0.421-0.082-0.566-0.245
		c-0.144-0.165-0.216-0.398-0.216-0.703v-2.598c0-0.515-0.072-0.907-0.215-1.18c-0.143-0.271-0.428-0.408-0.854-0.408
		c-0.277,0-0.531,0.082-0.76,0.248c-0.229,0.166-0.396,0.393-0.503,0.683c-0.075,0.233-0.113,0.667-0.113,1.302v1.953
		c0,0.315-0.074,0.554-0.22,0.711c-0.147,0.159-0.336,0.237-0.568,0.237c-0.225,0-0.409-0.082-0.555-0.245
		c-0.145-0.165-0.216-0.398-0.216-0.703v-4.505c0-0.298,0.064-0.52,0.193-0.666c0.13-0.147,0.307-0.22,0.531-0.22
		c0.138,0,0.261,0.032,0.372,0.098c0.109,0.065,0.198,0.162,0.266,0.291C208.576,475.107,208.61,475.267,208.61,475.452z
		 M218.093,478.143h-3.048c0.003,0.353,0.074,0.666,0.214,0.935c0.138,0.272,0.322,0.475,0.554,0.612
		c0.23,0.137,0.483,0.204,0.762,0.204c0.188,0,0.357-0.022,0.512-0.064c0.153-0.045,0.303-0.112,0.448-0.206
		c0.145-0.093,0.277-0.193,0.4-0.301c0.121-0.106,0.278-0.251,0.473-0.434c0.08-0.068,0.194-0.102,0.343-0.102
		c0.16,0,0.289,0.045,0.388,0.132c0.1,0.088,0.149,0.211,0.149,0.371c0,0.141-0.056,0.305-0.166,0.494
		c-0.111,0.188-0.276,0.368-0.5,0.542c-0.223,0.173-0.502,0.316-0.839,0.432c-0.338,0.113-0.725,0.171-1.162,0.171
		c-1.001,0-1.779-0.286-2.336-0.857c-0.556-0.57-0.833-1.346-0.833-2.323c0-0.46,0.068-0.889,0.205-1.281
		c0.137-0.395,0.338-0.732,0.6-1.015c0.262-0.281,0.586-0.497,0.97-0.647c0.384-0.15,0.812-0.226,1.28-0.226
		c0.608,0,1.13,0.128,1.566,0.386c0.436,0.256,0.762,0.589,0.979,0.995c0.218,0.407,0.326,0.823,0.326,1.245
		c0,0.393-0.112,0.646-0.336,0.764C218.816,478.084,218.5,478.143,218.093,478.143z M215.045,477.257h2.826
		c-0.039-0.533-0.183-0.932-0.431-1.196c-0.251-0.265-0.578-0.396-0.985-0.396c-0.389,0-0.708,0.134-0.957,0.402
		C215.248,476.334,215.098,476.731,215.045,477.257z M224.447,480.037v-0.153c-0.209,0.239-0.415,0.435-0.62,0.585
		c-0.203,0.15-0.424,0.265-0.662,0.343c-0.237,0.078-0.496,0.117-0.778,0.117c-0.373,0-0.719-0.078-1.037-0.237
		c-0.317-0.157-0.593-0.384-0.825-0.676c-0.232-0.294-0.407-0.638-0.527-1.033c-0.121-0.397-0.181-0.824-0.181-1.285
		c0-0.975,0.238-1.735,0.714-2.279c0.476-0.544,1.103-0.816,1.879-0.816c0.449,0,0.828,0.078,1.137,0.23
		c0.308,0.155,0.609,0.393,0.901,0.711v-2.301c0-0.319,0.063-0.561,0.191-0.725c0.127-0.164,0.311-0.245,0.546-0.245
		c0.235,0,0.417,0.075,0.545,0.225c0.127,0.15,0.191,0.371,0.191,0.665v6.874c0,0.298-0.068,0.52-0.205,0.669
		c-0.138,0.147-0.313,0.223-0.531,0.223c-0.214,0-0.39-0.077-0.528-0.231C224.517,480.542,224.447,480.323,224.447,480.037z
		 M221.382,477.748c0,0.423,0.064,0.782,0.196,1.079c0.131,0.297,0.311,0.522,0.54,0.67c0.229,0.152,0.477,0.228,0.748,0.228
		c0.274,0,0.524-0.072,0.75-0.216c0.227-0.142,0.408-0.361,0.542-0.655c0.137-0.295,0.203-0.664,0.203-1.105
		c0-0.415-0.066-0.771-0.203-1.071c-0.134-0.299-0.316-0.527-0.547-0.686c-0.231-0.157-0.482-0.236-0.757-0.236
		c-0.285,0-0.54,0.081-0.765,0.243c-0.225,0.161-0.399,0.393-0.522,0.696C221.442,476.998,221.382,477.349,221.382,477.748z
		 M230.818,473.163v2.38c0.293-0.304,0.592-0.537,0.897-0.699c0.304-0.161,0.681-0.242,1.13-0.242c0.519,0,0.972,0.123,1.362,0.368
		c0.389,0.246,0.692,0.602,0.908,1.068c0.215,0.465,0.322,1.02,0.322,1.659c0,0.472-0.061,0.904-0.181,1.299
		c-0.119,0.393-0.293,0.735-0.522,1.023c-0.228,0.29-0.505,0.515-0.83,0.672c-0.326,0.159-0.685,0.237-1.076,0.237
		c-0.24,0-0.467-0.028-0.677-0.086c-0.211-0.058-0.393-0.131-0.54-0.226c-0.147-0.093-0.274-0.188-0.379-0.288
		c-0.105-0.099-0.243-0.248-0.415-0.445v0.153c0,0.294-0.07,0.516-0.211,0.666c-0.14,0.15-0.319,0.226-0.537,0.226
		c-0.221,0-0.396-0.075-0.528-0.226c-0.131-0.15-0.196-0.372-0.196-0.666v-6.807c0-0.315,0.064-0.555,0.19-0.716
		c0.128-0.161,0.307-0.242,0.534-0.242c0.24,0,0.425,0.076,0.555,0.23C230.754,472.658,230.818,472.877,230.818,473.163z
		 M230.893,477.794c0,0.621,0.142,1.097,0.427,1.43c0.282,0.334,0.654,0.501,1.115,0.501c0.392,0,0.729-0.171,1.013-0.512
		c0.284-0.341,0.427-0.828,0.427-1.465c0-0.411-0.059-0.766-0.178-1.063c-0.118-0.297-0.285-0.526-0.502-0.688
		c-0.218-0.162-0.47-0.243-0.76-0.243c-0.296,0-0.562,0.081-0.794,0.243c-0.231,0.161-0.415,0.396-0.549,0.702
		C230.959,477.006,230.893,477.371,230.893,477.794z M237.46,481.122l0.142-0.349l-1.919-4.83c-0.117-0.277-0.177-0.479-0.177-0.605
		c0-0.133,0.034-0.257,0.104-0.37c0.068-0.114,0.162-0.206,0.281-0.274c0.121-0.069,0.246-0.104,0.375-0.104
		c0.225,0,0.394,0.072,0.509,0.215c0.114,0.143,0.215,0.347,0.303,0.613l1.318,3.838l1.25-3.569c0.099-0.289,0.189-0.516,0.27-0.68
		c0.08-0.164,0.164-0.274,0.253-0.33c0.09-0.058,0.217-0.087,0.38-0.087c0.118,0,0.231,0.031,0.34,0.095
		c0.108,0.063,0.191,0.147,0.252,0.254c0.059,0.106,0.088,0.219,0.088,0.337c-0.016,0.072-0.04,0.175-0.074,0.309
		c-0.035,0.133-0.076,0.268-0.125,0.405l-2.033,5.322c-0.176,0.468-0.346,0.835-0.514,1.102c-0.168,0.267-0.389,0.472-0.666,0.614
		c-0.275,0.143-0.648,0.213-1.115,0.213c-0.457,0-0.8-0.049-1.027-0.147c-0.23-0.1-0.343-0.28-0.343-0.543
		c0-0.178,0.054-0.316,0.163-0.414c0.107-0.097,0.268-0.146,0.481-0.146c0.083,0,0.165,0.012,0.245,0.035
		c0.1,0.023,0.185,0.034,0.257,0.034c0.179,0,0.319-0.027,0.423-0.081c0.103-0.053,0.195-0.144,0.277-0.277
		C237.258,481.571,237.352,481.377,237.46,481.122z M260.042,474.725c-0.522,0-0.785,0.186-0.785,0.561
		c0,0.167,0.063,0.305,0.189,0.407c0.127,0.106,0.304,0.157,0.538,0.157h0.428v4.132c0,0.307,0.073,0.541,0.22,0.702
		c0.148,0.163,0.331,0.244,0.552,0.244c0.234,0,0.422-0.081,0.566-0.244c0.15-0.161,0.222-0.396,0.222-0.702v-4.132h0.381
		c0.279,0,0.498-0.034,0.655-0.103c0.159-0.068,0.235-0.232,0.235-0.483c0-0.36-0.295-0.539-0.891-0.539h-0.381v-0.371
		c0-0.31,0.041-0.546,0.117-0.712c0.084-0.165,0.264-0.249,0.545-0.249c0.103,0,0.231,0.014,0.375,0.033
		c0.149,0.024,0.257,0.036,0.317,0.036c0.129,0,0.241-0.053,0.334-0.154c0.098-0.102,0.145-0.227,0.145-0.369
		c0-0.449-0.452-0.671-1.365-0.671c-0.514,0-0.919,0.066-1.213,0.196c-0.295,0.132-0.507,0.341-0.63,0.629
		c-0.124,0.288-0.185,0.675-0.185,1.164v0.468H260.042 M265.145,478.678c0-0.469,0.014-0.865,0.043-1.191
		c0.032-0.324,0.086-0.607,0.164-0.845c0.081-0.234,0.193-0.409,0.339-0.533c0.145-0.117,0.332-0.179,0.561-0.179
		c0.165,0,0.358,0.036,0.578,0.105c0.218,0.07,0.357,0.107,0.417,0.107c0.151,0,0.293-0.061,0.424-0.188
		c0.131-0.121,0.196-0.28,0.196-0.47c0-0.27-0.153-0.487-0.464-0.652c-0.308-0.164-0.622-0.245-0.952-0.245
		c-0.329,0-0.588,0.081-0.788,0.245c-0.194,0.165-0.385,0.405-0.569,0.727c-0.014-0.321-0.077-0.561-0.191-0.727
		c-0.114-0.164-0.301-0.245-0.562-0.245c-0.505,0-0.757,0.351-0.757,1.052v4.343c0,0.311,0.074,0.547,0.216,0.705
		c0.145,0.162,0.328,0.241,0.558,0.241c0.228,0,0.415-0.077,0.564-0.237c0.145-0.157,0.225-0.395,0.225-0.709V478.678
		 M272.311,478.142h-3.051c0.005,0.353,0.074,0.667,0.213,0.936c0.142,0.268,0.325,0.472,0.557,0.61
		c0.231,0.138,0.482,0.205,0.762,0.205c0.186,0,0.357-0.021,0.511-0.067c0.153-0.041,0.305-0.111,0.449-0.204
		c0.145-0.092,0.275-0.191,0.398-0.301c0.121-0.105,0.281-0.25,0.475-0.432c0.081-0.068,0.195-0.104,0.342-0.104
		c0.162,0,0.29,0.044,0.391,0.132c0.101,0.09,0.146,0.212,0.146,0.371c0,0.143-0.053,0.306-0.16,0.493
		c-0.113,0.19-0.278,0.37-0.503,0.545c-0.225,0.172-0.504,0.317-0.84,0.429c-0.337,0.115-0.725,0.173-1.161,0.173
		c-1.005,0-1.782-0.284-2.336-0.855c-0.556-0.572-0.838-1.348-0.838-2.325c0-0.461,0.07-0.89,0.209-1.283
		c0.136-0.396,0.336-0.732,0.602-1.015c0.262-0.283,0.582-0.498,0.969-0.648c0.384-0.149,0.811-0.225,1.279-0.225
		c0.607,0,1.131,0.128,1.566,0.388c0.437,0.254,0.766,0.587,0.979,0.995c0.218,0.408,0.326,0.822,0.326,1.246
		c0,0.391-0.113,0.643-0.338,0.762C273.033,478.083,272.719,478.142,272.311,478.142 M269.261,477.255h2.826
		c-0.037-0.532-0.18-0.933-0.43-1.195c-0.251-0.266-0.576-0.397-0.985-0.397c-0.388,0-0.707,0.132-0.958,0.402
		C269.466,476.334,269.313,476.729,269.261,477.255 M278.797,478.142h-3.051c0.004,0.353,0.075,0.667,0.214,0.936
		c0.139,0.268,0.324,0.472,0.553,0.61c0.23,0.138,0.485,0.205,0.765,0.205c0.186,0,0.357-0.021,0.508-0.067
		c0.155-0.041,0.305-0.111,0.451-0.204c0.146-0.092,0.276-0.191,0.399-0.301c0.12-0.105,0.278-0.25,0.474-0.432
		c0.08-0.068,0.195-0.104,0.341-0.104c0.162,0,0.292,0.044,0.392,0.132c0.1,0.09,0.145,0.212,0.145,0.371
		c0,0.143-0.052,0.306-0.164,0.493c-0.107,0.19-0.274,0.37-0.5,0.545c-0.222,0.172-0.505,0.317-0.838,0.429
		c-0.336,0.115-0.727,0.173-1.164,0.173c-1.001,0-1.778-0.284-2.336-0.855c-0.556-0.572-0.835-1.348-0.835-2.325
		c0-0.461,0.07-0.89,0.209-1.283c0.136-0.396,0.336-0.732,0.599-1.015c0.262-0.283,0.585-0.498,0.971-0.648
		c0.383-0.149,0.812-0.225,1.28-0.225c0.605,0,1.128,0.128,1.571,0.388c0.432,0.254,0.761,0.587,0.975,0.995
		c0.216,0.408,0.327,0.822,0.327,1.246c0,0.391-0.115,0.643-0.338,0.762C279.518,478.083,279.203,478.142,278.797,478.142
		 M275.746,477.255h2.826c-0.038-0.532-0.182-0.933-0.43-1.195c-0.253-0.266-0.578-0.397-0.987-0.397
		c-0.388,0-0.707,0.132-0.957,0.402C275.949,476.334,275.797,476.729,275.746,477.255 M282.211,475.464v0.188
		c0.292-0.361,0.598-0.627,0.916-0.797c0.312-0.171,0.673-0.256,1.072-0.256c0.478,0,0.923,0.125,1.326,0.371
		c0.403,0.248,0.72,0.61,0.955,1.086c0.234,0.478,0.352,1.039,0.352,1.691c0,0.478-0.066,0.92-0.201,1.323
		c-0.134,0.401-0.323,0.737-0.558,1.01c-0.237,0.271-0.515,0.482-0.837,0.629c-0.324,0.144-0.668,0.219-1.037,0.219
		c-0.444,0-0.821-0.09-1.121-0.268c-0.304-0.177-0.591-0.442-0.867-0.786v2.34c0,0.684-0.25,1.029-0.748,1.029
		c-0.295,0-0.486-0.088-0.585-0.265c-0.09-0.18-0.14-0.436-0.14-0.776v-6.729c0-0.298,0.064-0.517,0.193-0.666
		c0.129-0.144,0.308-0.219,0.531-0.219c0.223,0,0.4,0.075,0.538,0.225C282.143,474.965,282.211,475.179,282.211,475.464
		 M285.268,477.729c0-0.411-0.064-0.766-0.189-1.061c-0.125-0.296-0.301-0.521-0.522-0.678c-0.221-0.158-0.47-0.238-0.74-0.238
		c-0.429,0-0.793,0.171-1.088,0.507c-0.296,0.341-0.443,0.84-0.443,1.5c0,0.616,0.146,1.102,0.441,1.446
		c0.293,0.344,0.653,0.516,1.09,0.516c0.258,0,0.499-0.075,0.72-0.223c0.223-0.153,0.4-0.377,0.531-0.678
		C285.2,478.52,285.268,478.155,285.268,477.729 M288.402,473.861c-0.217,0-0.401-0.068-0.554-0.201
		c-0.156-0.134-0.234-0.32-0.234-0.563c0-0.221,0.079-0.402,0.239-0.547c0.156-0.141,0.34-0.214,0.549-0.214
		c0.204,0,0.383,0.064,0.538,0.192c0.156,0.132,0.234,0.321,0.234,0.568c0,0.24-0.076,0.428-0.228,0.563
		C288.795,473.793,288.614,473.861,288.402,473.861 M289.175,475.472v4.511c0,0.31-0.075,0.546-0.223,0.704
		c-0.15,0.162-0.337,0.241-0.566,0.241c-0.228,0-0.411-0.081-0.558-0.244c-0.14-0.167-0.214-0.4-0.214-0.701v-4.466
		c0-0.307,0.074-0.538,0.214-0.694c0.146-0.159,0.329-0.235,0.558-0.235c0.23,0,0.416,0.076,0.566,0.235
		C289.1,474.978,289.175,475.196,289.175,475.472 M294.2,480.216c0.174,0.267,0.317,0.453,0.419,0.558
		c0.103,0.104,0.251,0.154,0.441,0.154c0.219,0,0.398-0.07,0.533-0.213c0.137-0.146,0.205-0.338,0.205-0.587
		c0-0.086-0.027-0.182-0.078-0.277c-0.052-0.097-0.139-0.235-0.255-0.425l-1.599-2.514l0.827-0.76
		c0.422-0.381,0.635-0.688,0.635-0.915c0-0.185-0.066-0.341-0.193-0.465c-0.133-0.123-0.293-0.186-0.489-0.186
		c-0.163,0-0.301,0.042-0.414,0.125c-0.118,0.083-0.28,0.242-0.498,0.468l-1.753,1.842v-3.783c0-0.318-0.072-0.561-0.213-0.723
		c-0.143-0.165-0.33-0.248-0.57-0.248c-0.246,0-0.44,0.089-0.573,0.272c-0.13,0.182-0.198,0.445-0.198,0.789v6.652
		c0,0.311,0.07,0.547,0.206,0.705c0.136,0.162,0.325,0.241,0.565,0.241c0.204,0,0.391-0.081,0.545-0.244
		c0.158-0.161,0.238-0.392,0.238-0.691v-1.241l0.847-0.799L294.2,480.216 M297.588,480.928c0.228,0,0.428-0.076,0.601-0.232
		c0.167-0.151,0.253-0.365,0.253-0.637c0-0.234-0.086-0.436-0.253-0.603c-0.173-0.164-0.376-0.247-0.614-0.247
		c-0.241,0-0.441,0.083-0.606,0.251c-0.164,0.167-0.246,0.366-0.246,0.599c0,0.276,0.087,0.489,0.257,0.64
		C297.151,480.852,297.353,480.928,297.588,480.928 M305.342,478.997c0-0.162-0.064-0.318-0.19-0.463
		c-0.125-0.143-0.283-0.217-0.474-0.217c-0.16,0-0.296,0.052-0.406,0.149c-0.109,0.1-0.21,0.235-0.305,0.411
		c-0.172,0.298-0.368,0.518-0.594,0.663c-0.223,0.145-0.49,0.216-0.804,0.216c-0.23,0-0.444-0.043-0.639-0.135
		c-0.194-0.091-0.358-0.221-0.497-0.394c-0.139-0.174-0.243-0.383-0.314-0.628c-0.071-0.246-0.109-0.517-0.109-0.811
		c0-0.621,0.142-1.117,0.423-1.475c0.282-0.36,0.656-0.539,1.114-0.539c0.32,0,0.583,0.071,0.789,0.218
		c0.21,0.143,0.408,0.361,0.599,0.648c0.104,0.151,0.202,0.259,0.288,0.327c0.087,0.065,0.193,0.1,0.325,0.1
		c0.194,0,0.362-0.066,0.505-0.196c0.137-0.129,0.205-0.288,0.205-0.473s-0.06-0.382-0.184-0.594
		c-0.124-0.209-0.304-0.407-0.536-0.597c-0.235-0.185-0.519-0.338-0.855-0.456c-0.34-0.118-0.709-0.177-1.114-0.177
		c-0.648,0-1.211,0.133-1.68,0.402c-0.467,0.269-0.826,0.649-1.07,1.139c-0.25,0.492-0.372,1.057-0.372,1.697
		c0,0.944,0.27,1.698,0.809,2.261c0.54,0.56,1.293,0.843,2.259,0.843c0.451,0,0.859-0.064,1.221-0.185
		c0.362-0.12,0.662-0.284,0.899-0.483c0.238-0.199,0.416-0.408,0.531-0.631C305.285,479.398,305.342,479.19,305.342,478.997
		 M312.07,477.759c0,0.462-0.074,0.893-0.214,1.285c-0.149,0.393-0.355,0.729-0.632,1.01c-0.273,0.282-0.602,0.498-0.98,0.649
		c-0.385,0.148-0.81,0.226-1.285,0.226c-0.473,0-0.899-0.077-1.275-0.23c-0.375-0.15-0.704-0.369-0.979-0.65
		c-0.276-0.286-0.485-0.622-0.632-1.009c-0.138-0.386-0.211-0.814-0.211-1.28c0-0.473,0.075-0.905,0.216-1.298
		c0.146-0.393,0.353-0.729,0.625-1.006c0.271-0.277,0.597-0.491,0.98-0.644c0.386-0.149,0.811-0.225,1.275-0.225
		c0.471,0,0.9,0.075,1.285,0.229c0.383,0.151,0.711,0.369,0.987,0.648c0.276,0.286,0.483,0.619,0.626,1.006
		C311.997,476.862,312.07,477.289,312.07,477.759 M310.505,477.759c0-0.637-0.141-1.131-0.42-1.484
		c-0.278-0.358-0.655-0.534-1.126-0.534c-0.306,0-0.574,0.08-0.809,0.237c-0.232,0.157-0.408,0.39-0.533,0.699
		c-0.126,0.31-0.19,0.67-0.19,1.082c0,0.408,0.061,0.762,0.186,1.065c0.124,0.309,0.302,0.541,0.531,0.701
		c0.233,0.161,0.503,0.243,0.815,0.243c0.471,0,0.848-0.177,1.126-0.535C310.364,478.878,310.505,478.385,310.505,477.759
		 M318.017,477.873c0-0.668,0.06-1.133,0.171-1.396c0.104-0.202,0.249-0.369,0.434-0.488c0.185-0.121,0.379-0.186,0.585-0.186
		c0.255,0,0.446,0.07,0.572,0.207c0.125,0.136,0.202,0.307,0.23,0.509c0.028,0.201,0.042,0.469,0.042,0.805v2.622
		c0,0.323,0.075,0.569,0.226,0.735c0.151,0.165,0.343,0.248,0.58,0.248c0.243,0,0.441-0.082,0.59-0.245
		c0.147-0.167,0.221-0.41,0.221-0.738v-3.044c0-0.605-0.065-1.049-0.198-1.333c-0.154-0.31-0.385-0.551-0.69-0.719
		c-0.308-0.166-0.678-0.251-1.103-0.251c-0.366,0-0.698,0.077-0.999,0.232c-0.3,0.155-0.583,0.393-0.848,0.71
		c-0.184-0.313-0.414-0.551-0.697-0.708c-0.28-0.155-0.616-0.233-1.009-0.233c-0.379,0-0.719,0.075-1.029,0.232
		c-0.307,0.149-0.596,0.388-0.868,0.71v-0.147c0-0.251-0.071-0.448-0.214-0.592c-0.143-0.14-0.321-0.214-0.535-0.214
		c-0.219,0-0.396,0.075-0.535,0.229c-0.134,0.151-0.201,0.374-0.201,0.668v4.461c0,0.323,0.074,0.569,0.225,0.735
		c0.15,0.165,0.344,0.248,0.581,0.248c0.239,0,0.432-0.083,0.58-0.248c0.144-0.166,0.218-0.412,0.218-0.735v-2.105
		c0-0.658,0.083-1.161,0.244-1.508c0.162-0.354,0.496-0.529,1.008-0.529c0.254,0,0.442,0.07,0.56,0.212
		c0.117,0.137,0.19,0.317,0.218,0.53c0.026,0.218,0.038,0.524,0.038,0.916v2.484c0,0.328,0.075,0.571,0.225,0.738
		c0.142,0.163,0.335,0.245,0.571,0.245c0.244,0,0.438-0.082,0.587-0.245c0.15-0.167,0.223-0.41,0.223-0.738V477.873 M245.45,477.371
		c0,0.005,0,0.007,0.001,0.011C245.45,477.378,245.45,477.376,245.45,477.371z M245.529,477.88h0.003
		c-0.03-0.143-0.053-0.283-0.071-0.422C245.479,477.598,245.502,477.739,245.529,477.88z M246.036,479.306
		c0.003,0.008,0.007,0.015,0.011,0.021C246.043,479.32,246.039,479.314,246.036,479.306z M245.997,479.229
		c-0.015-0.025-0.027-0.054-0.04-0.079C245.97,479.178,245.982,479.204,245.997,479.229z M245.675,478.438
		c0.077,0.24,0.168,0.473,0.275,0.696c-0.108-0.228-0.198-0.462-0.273-0.696H245.675z M251.486,471.407
		c0.301,0,0.523,0.024,0.778,0.067l0.072-0.459c0,0-0.704-0.217-1.63-0.141l-0.073-0.25c0.288-0.06,0.504-0.316,0.504-0.621
		c0-0.35-0.284-0.634-0.636-0.634c-0.35,0-0.634,0.284-0.634,0.634c0,0.305,0.215,0.561,0.503,0.621l0.08,0.278
		c-0.983,0.136-1.766,0.519-1.766,0.519l0.139,0.424c0.596-0.197,1.111-0.318,1.578-0.368
		C250.86,471.429,251.204,471.407,251.486,471.407z M246.034,473.727l0.004-0.004c0.023-0.03,0.046-0.059,0.068-0.086l-0.188-0.136
		l-0.293-0.214c-0.017,0.022-0.479,0.447-0.842,1.23c-0.016-0.024-0.034-0.049-0.055-0.071c-0.109-0.119-0.262-0.181-0.456-0.177
		h-0.009c-0.119,0-0.203-0.04-0.257-0.089c0.054-0.068,0.087-0.153,0.087-0.248c0-0.222-0.181-0.402-0.402-0.402
		c-0.223,0-0.402,0.181-0.402,0.402c0,0.223,0.18,0.402,0.402,0.402c0.034,0,0.067-0.006,0.1-0.013
		c0.1,0.109,0.256,0.205,0.486,0.201c0.118-0.002,0.204,0.029,0.263,0.093c0.066,0.073,0.089,0.178,0.096,0.257
		c-0.001,0.002-0.001,0.004-0.001,0.004c-0.263,0.715-0.188,1.604-0.188,1.604l0.635,0.025c0.014-0.324,0.06-0.892,0.224-1.341
		C245.622,474.295,246.019,473.75,246.034,473.727z M257.017,471.939c-0.222,0-0.402,0.18-0.402,0.402
		c0,0.035,0.006,0.067,0.014,0.1c-0.11,0.1-0.205,0.257-0.201,0.487c0.001,0.118-0.029,0.204-0.093,0.262
		c-0.052,0.046-0.115,0.069-0.179,0.085c-0.474-0.663-1.056-1.067-1.056-1.067l-0.456,0.489c0.345,0.314,0.696,0.706,1.039,1.196
		c0.236,0.339,0.48,0.775,0.683,1.211l0.616-0.292c0,0-0.281-0.694-0.677-1.317c0.068-0.024,0.138-0.062,0.199-0.116
		c0.12-0.108,0.18-0.262,0.176-0.455c-0.001-0.125,0.04-0.21,0.09-0.266c0.067,0.053,0.153,0.086,0.247,0.086
		c0.224,0,0.403-0.181,0.403-0.402C257.42,472.118,257.24,471.939,257.017,471.939z M255.419,477.471
		c-0.847,0.413-2.241,0.958-4.077,1.214c-0.72,0.101-1.418,0.138-2.061,0.138c-0.836,0-1.574-0.063-2.142-0.134
		c-0.647-0.082-1.153-0.182-1.462-0.251c0.074,0.234,0.164,0.468,0.273,0.696c0.002,0.006,0.005,0.012,0.007,0.017
		c0.013,0.025,0.025,0.054,0.04,0.079c0.013,0.027,0.025,0.053,0.039,0.076c0.003,0.008,0.007,0.015,0.011,0.021
		c0.182,0.343,0.399,0.658,0.648,0.931c0.866,0.948,1.749,1.097,1.757,1.098l0.013,0.003l0.014,0.005
		c0.008,0.002,0.79,0.255,1.979,0.255c1.169,0,2.316-0.236,3.411-0.701c0.81-0.415,1.575-1.044,1.956-1.605
		c0.293-0.434,0.505-0.898,0.631-1.38c0.066-0.256,0.119-0.665,0.089-1.097C256.307,476.994,255.93,477.223,255.419,477.471z
		 M246.307,473.928c-0.024,0.036-0.392,0.556-0.683,1.354c-0.218,0.599-0.208,1.469-0.208,1.479v0.002
		c0,0.204,0.012,0.407,0.034,0.608c0,0.005,0,0.007,0.001,0.011c0.002,0.025,0.007,0.05,0.01,0.076
		c0.019,0.139,0.041,0.279,0.071,0.422c0.42,0.106,2.933,0.692,5.74,0.301c1.759-0.243,3.096-0.764,3.907-1.157
		c0.674-0.327,1.106-0.623,1.274-0.745c-0.166-0.618-0.627-1.587-1.048-2.192c-1.205-1.723-2.505-2.164-3.173-2.274
		c-0.255-0.041-0.458-0.065-0.747-0.065c-0.269,0-0.603,0.022-1.049,0.068c-0.446,0.047-0.945,0.164-1.521,0.358
		c-0.811,0.271-1.544,0.697-2.12,1.231l-0.021,0.018C246.689,473.501,246.512,473.666,246.307,473.928z M253.684,473.527
		c0.577,0,1.047,0.469,1.047,1.047c0,0.579-0.47,1.049-1.047,1.049c-0.579,0-1.048-0.47-1.048-1.049
		C252.636,473.996,253.104,473.527,253.684,473.527z M248.729,473.485c0.936,0,1.692,0.758,1.692,1.693
		c0,0.936-0.757,1.692-1.692,1.692c-0.935,0-1.693-0.757-1.693-1.692C247.035,474.243,247.794,473.485,248.729,473.485z"/>
</g>
</svg>
