<svg version="1.1" xmlns="http://www.w3.org/2000/svg" xmlns:xlink="http://www.w3.org/1999/xlink" width="140.07653" height="310.00393" viewBox="0,0,140.07653,310.00393"><g transform="translate(-169.96173,-24.99804)"><g data-paper-data="{&quot;isPaintingLayer&quot;:true}" fill-rule="nonzero" stroke="none" stroke-width="1" stroke-linecap="butt" stroke-linejoin="miter" stroke-miterlimit="10" stroke-dasharray="" stroke-dashoffset="0" style="mix-blend-mode: normal"><path d="M240.00027,335.00198c-32.148,0 -66.61,-19.079 -69.392,-40.409c-2.782,-21.329 4.327,-66.458 4.327,-66.458c0,0 0,-73.571 0,-92.118c0,-18.547 -8.346,-35.549 0,-74.798c8.346,-39.249 65.065,-36.164 65.065,-36.164c0,0 56.719,-3.085 65.064,36.164c8.346,39.249 0,56.251 0,74.798c0,18.547 0,92.118 0,92.118c0,0 7.109,45.129 4.328,66.458c-2.783,21.33 -37.243,40.409 -69.392,40.409z" fill="#e6e7e8"/><path d="M170.92627,296.39098c-0.128,-0.597 -0.24,-1.195 -0.318,-1.797c-0.101,-0.777 -0.188,-1.591 -0.264,-2.427c-0.007,-0.075 -0.013,-0.151 -0.02,-0.225c-0.071,-0.811 -0.131,-1.643 -0.179,-2.5c-0.003,-0.044 -0.007,-0.089 -0.009,-0.136c-0.049,-0.888 -0.087,-1.799 -0.115,-2.732c-0.002,-0.074 -0.004,-0.15 -0.006,-0.221c-0.025,-0.896 -0.041,-1.813 -0.048,-2.746c-0.001,-0.073 -0.001,-0.148 -0.002,-0.224c-0.005,-0.976 -0.001,-1.967 0.011,-2.975c0,-0.052 0.001,-0.103 0.002,-0.156c0.013,-0.975 0.035,-1.963 0.063,-2.961c0.003,-0.095 0.005,-0.193 0.008,-0.289c0.031,-1.031 0.068,-2.072 0.114,-3.121c0,-0.011 0.001,-0.022 0.001,-0.031c0.046,-1.06 0.1,-2.125 0.16,-3.198c0.006,-0.093 0.011,-0.187 0.016,-0.279c0.059,-1.033 0.123,-2.07 0.192,-3.11c0.003,-0.047 0.007,-0.095 0.011,-0.145c0.072,-1.075 0.149,-2.147 0.232,-3.22c0.006,-0.075 0.012,-0.15 0.018,-0.221c0.08,-1.034 0.165,-2.065 0.252,-3.09c0.006,-0.067 0.012,-0.135 0.017,-0.203c0.093,-1.068 0.188,-2.126 0.286,-3.176c0.005,-0.032 0.008,-0.065 0.01,-0.095c0.098,-1.033 0.198,-2.055 0.3,-3.067c0.007,-0.065 0.014,-0.134 0.021,-0.201c0.209,-2.063 0.427,-4.072 0.646,-5.995c0.006,-0.061 0.013,-0.121 0.02,-0.179c0.108,-0.946 0.215,-1.874 0.323,-2.774c1.165,-9.774 2.266,-16.762 2.266,-16.762c0,0 0,-73.572 0,-92.118c0,-2.64 -0.172,-5.248 -0.438,-7.893l3.679,-39.165l5.213,160.43c3.48,11.537 6.84,24.086 8.594,34.467c4.584,27.138 15.641,41.86 24.872,48.054c-0.007,-0.002 -0.015,-0.004 -0.021,-0.004c-0.68,-0.179 -1.357,-0.365 -2.031,-0.56c-0.122,-0.035 -0.243,-0.068 -0.365,-0.103c-2.8,-0.811 -5.545,-1.743 -8.21,-2.782c-0.138,-0.053 -0.274,-0.108 -0.41,-0.16c-0.624,-0.246 -1.246,-0.498 -1.86,-0.756c-0.022,-0.009 -0.043,-0.016 -0.064,-0.026c-1.352,-0.57 -2.681,-1.165 -3.984,-1.787c-0.002,-0.002 -0.004,-0.002 -0.007,-0.004c-0.552,-0.265 -1.097,-0.536 -1.639,-0.809c-0.195,-0.099 -0.391,-0.198 -0.585,-0.296c-0.513,-0.265 -1.024,-0.532 -1.528,-0.803c-0.18,-0.098 -0.355,-0.195 -0.534,-0.293c-1.012,-0.557 -2.004,-1.127 -2.974,-1.714c-0.11,-0.064 -0.224,-0.131 -0.333,-0.199c-0.431,-0.262 -0.852,-0.532 -1.273,-0.803c-0.26,-0.165 -0.519,-0.333 -0.775,-0.499c-0.393,-0.258 -0.782,-0.518 -1.166,-0.782c-0.281,-0.191 -0.557,-0.387 -0.832,-0.582c-0.479,-0.339 -0.952,-0.677 -1.416,-1.025c-0.434,-0.325 -0.866,-0.647 -1.287,-0.98c-0.297,-0.231 -0.585,-0.47 -0.875,-0.708c-0.31,-0.252 -0.619,-0.506 -0.922,-0.764c-0.278,-0.235 -0.552,-0.475 -0.823,-0.713c-0.323,-0.283 -0.637,-0.572 -0.95,-0.861c-0.231,-0.212 -0.465,-0.422 -0.689,-0.638c-0.498,-0.476 -0.983,-0.957 -1.451,-1.443c-0.182,-0.188 -0.353,-0.379 -0.529,-0.568c-0.32,-0.345 -0.637,-0.69 -0.943,-1.037c-0.185,-0.213 -0.367,-0.427 -0.548,-0.641c-0.301,-0.355 -0.594,-0.718 -0.88,-1.08c-0.146,-0.185 -0.297,-0.369 -0.439,-0.557c-0.405,-0.533 -0.795,-1.069 -1.164,-1.611c-0.09,-0.132 -0.171,-0.267 -0.259,-0.397c-0.287,-0.437 -0.562,-0.87 -0.825,-1.308c-0.116,-0.193 -0.227,-0.387 -0.339,-0.582c-0.231,-0.408 -0.451,-0.816 -0.661,-1.225c-0.09,-0.174 -0.184,-0.351 -0.27,-0.524c-0.281,-0.576 -0.544,-1.151 -0.781,-1.73c-0.029,-0.073 -0.053,-0.148 -0.081,-0.22c-0.205,-0.517 -0.391,-1.032 -0.56,-1.552c-0.06,-0.185 -0.113,-0.37 -0.169,-0.557c-0.128,-0.43 -0.244,-0.86 -0.348,-1.296c-0.044,-0.18 -0.089,-0.358 -0.128,-0.54z" fill="#be1e2d"/><path d="M309.65527,292.18598c-0.076,0.831 -0.162,1.634 -0.262,2.406c-0.077,0.597 -0.19,1.191 -0.317,1.788c-0.038,0.176 -0.081,0.349 -0.123,0.526c-0.105,0.444 -0.224,0.886 -0.356,1.327c-0.05,0.168 -0.098,0.337 -0.153,0.506c-0.189,0.583 -0.394,1.166 -0.628,1.742c-0.03,0.075 -0.066,0.147 -0.097,0.223c-0.211,0.505 -0.439,1.01 -0.682,1.511c-0.091,0.186 -0.185,0.373 -0.281,0.559c-0.212,0.413 -0.435,0.825 -0.668,1.234c-0.098,0.173 -0.191,0.345 -0.294,0.519c-0.325,0.545 -0.667,1.091 -1.031,1.633c-0.094,0.136 -0.196,0.273 -0.292,0.413c-0.288,0.414 -0.584,0.827 -0.893,1.237c-0.155,0.204 -0.312,0.407 -0.471,0.609c-0.284,0.362 -0.578,0.72 -0.879,1.079c-0.16,0.187 -0.312,0.378 -0.475,0.563c-0.432,0.499 -0.88,0.994 -1.342,1.48c-0.189,0.196 -0.386,0.392 -0.58,0.59c-0.31,0.317 -0.625,0.628 -0.947,0.941c-0.239,0.23 -0.479,0.46 -0.724,0.686c-0.307,0.286 -0.621,0.57 -0.937,0.849c-0.247,0.221 -0.49,0.444 -0.744,0.661c-0.503,0.43 -1.019,0.858 -1.545,1.28c-0.308,0.245 -0.624,0.487 -0.939,0.73c-0.284,0.22 -0.57,0.44 -0.86,0.656c-0.344,0.255 -0.691,0.511 -1.043,0.764c-0.265,0.19 -0.535,0.377 -0.805,0.563c-0.765,0.533 -1.545,1.054 -2.345,1.565c-0.15,0.095 -0.295,0.192 -0.445,0.287c-0.436,0.275 -0.881,0.54 -1.326,0.811c-0.228,0.134 -0.455,0.272 -0.683,0.408c-0.46,0.268 -0.924,0.536 -1.395,0.803c-0.165,0.09 -0.334,0.18 -0.501,0.273c-1.623,0.896 -3.298,1.752 -5.019,2.563c-0.162,0.075 -0.323,0.151 -0.486,0.227c-0.573,0.263 -1.148,0.525 -1.729,0.779c-0.017,0.007 -0.033,0.013 -0.049,0.021c-1.92,0.84 -3.89,1.622 -5.901,2.345c-0.119,0.04 -0.237,0.086 -0.356,0.127c-2.01,0.713 -4.06,1.37 -6.138,1.957c-0.015,0.004 -0.027,0.007 -0.041,0.013c9.089,-6.453 19.723,-21.11 24.196,-47.586c1.755,-10.389 5.118,-22.942 8.6,-34.486l-0.045,0.02l5.213,-160.43l3.229,34.361c-0.568,4.339 -1.002,8.479 -1.002,12.697c0,18.547 0,92.118 0,92.118c0,0 1.13,7.17 2.312,17.142v0c0.555,4.683 1.122,9.986 1.588,15.454c0.005,0.042 0.008,0.089 0.012,0.132c0.183,2.145 0.35,4.314 0.495,6.483c0.004,0.071 0.009,0.144 0.013,0.216c0.069,1.031 0.132,2.062 0.189,3.089c0.004,0.064 0.007,0.125 0.011,0.189c0.058,1.058 0.111,2.117 0.156,3.166c0.002,0.056 0.004,0.111 0.006,0.17c0.044,1.003 0.079,1.999 0.108,2.986c0.002,0.098 0.005,0.194 0.008,0.291c0.029,1.015 0.049,2.021 0.063,3.014c0,0.017 0,0.035 0,0.05c0.012,1 0.014,1.981 0.008,2.951c0,0.088 -0.001,0.174 -0.002,0.266c-0.007,0.918 -0.024,1.82 -0.049,2.704c-0.002,0.07 -0.004,0.137 -0.005,0.202c-0.029,0.925 -0.067,1.823 -0.116,2.703c-0.004,0.056 -0.007,0.111 -0.01,0.167c-0.048,0.844 -0.109,1.659 -0.178,2.455c-0.006,0.074 -0.013,0.147 -0.018,0.222z" fill="#be1e2d"/><path d="M309.77427,272.55698c0.4,8.202 0.397,16.058 -0.382,22.037c-0.708,5.413 -3.46,10.678 -7.691,15.526c-3.269,-3.951 -5.334,-9.751 -5.334,-16.219c0,-10.866 5.827,-19.855 13.407,-21.344z" fill="#ffffff" opacity="0.2"/><path d="M178.36527,310.19698c-4.268,-4.868 -7.049,-10.163 -7.758,-15.603c-0.781,-5.986 -0.782,-13.849 -0.381,-22.059c7.642,1.412 13.537,10.437 13.537,21.366c0,6.509 -2.092,12.34 -5.398,16.296z" fill="#ffffff" opacity="0.2"/><path d="M268.79526,28.25998c13.681,3.607 28.343,11.134 34.406,26.722l-22.707,-6.672z" fill="#f1f2f2"/><path d="M199.08027,48.30898l-22.23,6.53c6.023,-15.302 20.357,-22.801 33.852,-26.448z" fill="#f1f2f2"/><path d="M268.49427,80.61198c0,0 -13.348,-2.512 -30.041,-2.512c-16.692,0 -27.75,2.512 -27.75,2.512c-3.056,-15.691 1.334,-38.545 5.036,-53.421c13.127,-2.739 24.261,-2.136 24.261,-2.136c0,0 10.659,-0.577 23.414,1.963c3.712,14.872 8.147,37.841 5.08,53.594z" fill="#be1e2d"/><path d="M191.98327,127.69898c0,-19.919 22.582,-34.905 38.711,-34.905h16.315c15.737,0 40.414,16.074 41.035,35.333c0.033,0.966 -5.652,35.328 -5.652,35.328h-84.021z" fill="#1f354a"/><path d="M271.22127,293.90098h-62.443l-9.273,-66.768h80.989z" fill="#1f354a"/><path d="M288.68627,249.38898l-2.318,-76.583l6.322,-38.484c4.636,66.305 -4.004,115.067 -4.004,115.067z" fill="#1f354a"/><path d="M187.51627,134.32198l6.322,38.484l-2.318,76.583c0,0 -8.639,-48.762 -4.004,-115.067z" fill="#1f354a"/><path d="M261.09627,299.61897h8.811l-10.897,30.372z" fill="#1f354a"/><path d="M220.33327,329.99098l-10.896,-30.372h8.809z" fill="#1f354a"/><path d="M173.78227,144.43498c-1.822,1.252 -3.822,1.855 -3.819,-2.133c0.002,-3.991 6.455,-12.188 9.959,-12.201c3.504,-0.014 4.971,6.198 4.971,6.198c0,0 -9.291,6.884 -11.111,8.136z" fill="#e6e7e8"/><path d="M295.10727,136.29898c0,0 1.467,-6.212 4.971,-6.198c3.504,0.013 9.957,8.21 9.96,12.201c0.002,3.988 -1.998,3.385 -3.819,2.133c-1.822,-1.252 -11.112,-8.136 -11.112,-8.136z" fill="#e6e7e8"/></g></g></svg>